<?xml version="1.0" standalone="no"?>
<!DOCTYPE svg PUBLIC "-//W3C//DTD SVG 20010904//EN"
 "http://www.w3.org/TR/2001/REC-SVG-20010904/DTD/svg10.dtd">
<svg version="1.0" xmlns="http://www.w3.org/2000/svg"
 width="512.000000pt" height="512.000000pt" viewBox="0 0 512.000000 512.000000"
 preserveAspectRatio="xMidYMid meet">
<metadata>
Created by potrace 1.11, written by Peter Selinger 2001-2013
</metadata>
<g transform="translate(0.000000,512.000000) scale(0.100000,-0.100000)"
fill="#000000" stroke="none">
<path d="M940 4369 c-72 -11 -84 -13 -152 -29 l-58 -13 0 -39 c0 -38 10 -53
99 -148 53 -56 134 -218 155 -308 l12 -56 -91 -91 c-109 -107 -156 -174 -236
-338 -33 -67 -68 -137 -77 -156 -29 -57 -93 -118 -137 -130 -22 -6 -88 -11
-146 -11 -180 0 -235 -29 -273 -142 -28 -83 -35 -158 -32 -338 5 -238 29 -315
114 -360 64 -32 169 -50 332 -55 52 -2 100 -4 107 -4 19 -1 -34 -87 -84 -135
-24 -24 -62 -52 -84 -62 -42 -20 -42 -20 -39 -78 2 -45 31 -82 104 -130 107
-69 202 -94 419 -110 44 -3 53 -9 125 -79 42 -42 104 -97 137 -122 33 -24 65
-49 70 -53 6 -5 43 -28 83 -51 l72 -43 1 -47 c0 -25 2 -55 4 -66 2 -11 6 -38
9 -60 15 -127 53 -239 97 -289 79 -90 395 -115 539 -42 54 27 85 81 99 175 6
35 12 65 13 66 2 2 26 -1 55 -5 242 -39 566 -25 837 36 60 13 112 22 115 19 3
-3 6 -20 7 -38 10 -135 35 -206 86 -237 113 -69 397 -78 517 -15 17 8 42 32
55 53 27 41 62 144 71 207 3 23 7 50 9 62 5 24 13 132 21 272 l6 94 98 97 c53
52 125 132 159 175 34 44 67 85 72 92 6 7 10 14 10 17 0 2 17 33 38 67 21 35
45 80 54 99 48 105 58 131 79 200 13 41 24 77 24 80 1 3 7 30 13 60 44 206 32
521 -28 720 -9 31 -8 37 11 53 27 22 30 18 36 -35 15 -143 87 -252 203 -305
80 -37 183 -36 268 2 77 34 142 103 164 172 19 60 23 204 7 269 -22 86 -87
172 -167 217 l-40 22 39 0 c48 0 94 40 97 85 1 17 3 34 3 38 1 4 1 31 0 61 -1
46 -5 57 -35 87 -29 29 -41 34 -79 34 -59 0 -169 -55 -242 -122 -49 -44 -55
-54 -55 -89 0 -21 -4 -39 -10 -39 -5 0 -13 -1 -17 -2 -5 -1 -33 -8 -63 -15
-30 -8 -59 -15 -65 -17 -50 -15 -175 -78 -175 -88 0 -22 -21 -2 -55 53 -142
230 -390 454 -670 604 -107 57 -264 125 -289 125 -9 0 -27 -22 -41 -49 l-25
-50 -57 24 c-61 24 -148 51 -198 60 -261 47 -456 52 -759 21 -32 -4 -75 -10
-95 -14 -20 -5 -52 -8 -71 -8 -31 1 -36 5 -51 46 -12 32 -22 45 -36 44 -35 -3
-83 -14 -165 -41 -46 -15 -86 -27 -90 -27 -3 -1 -10 -4 -14 -8 -15 -15 -35 -7
-96 38 -137 101 -271 144 -463 149 -71 1 -155 -1 -185 -6z m3837 -1176 c12 -3
39 -20 60 -38 35 -31 37 -35 22 -50 -8 -8 -31 -18 -51 -21 -29 -5 -40 -2 -61
20 -42 41 -48 117 -8 100 9 -3 26 -9 38 -11z"/>
</g>
</svg>
