<?xml version="1.0" standalone="no"?>
<!DOCTYPE svg PUBLIC "-//W3C//DTD SVG 1.1//EN" "http://www.w3.org/Graphics/SVG/1.1/DTD/svg11.dtd" >
<svg xmlns="http://www.w3.org/2000/svg" xmlns:xlink="http://www.w3.org/1999/xlink" version="1.1">
<metadata></metadata>
<defs>
<font id="golden_gateregular" horiz-adv-x="2450" >
<font-face units-per-em="2048" ascent="1638" descent="-410" />
<missing-glyph horiz-adv-x="508" />
<glyph unicode="&#xd;" horiz-adv-x="508" />
<glyph horiz-adv-x="0" />
<glyph horiz-adv-x="0" />
<glyph unicode=" "  horiz-adv-x="508" />
<glyph unicode="&#x09;" horiz-adv-x="508" />
<glyph unicode="&#xa0;" horiz-adv-x="508" />
<glyph unicode="!" horiz-adv-x="916" d="M-50 -280l89 239q20 4 44 4q65 0 88 -40q6 -16 6 -33q0 -29 -22 -73q-59 -125 -131 -125q-34 0 -74 28zM70 34l720 1637q126 -9 126 -85q0 -29 -26 -74q-50 -84 -276 -616q-131 -305 -245 -561t-151 -296q-32 -35 -84 -39q-39 0 -64 34z" />
<glyph unicode="&#x22;" horiz-adv-x="517" d="M0 1181l189 404h5q80 0 97 -58l1 -9q0 -32 -30.5 -102.5t-70 -142.5t-58.5 -94t-35 -30.5t-30 -8.5q-28 0 -50 21zM221 1181l189 404h5q81 0 98 -58v-7q0 -32 -30 -103.5t-70 -143.5t-58.5 -94t-35 -30.5t-30.5 -8.5q-28 0 -50 21z" />
<glyph unicode="#" horiz-adv-x="1978" d="M0 588q0 32 25 55.5t82 23.5q16 0 34 -2q149 -12 395 -17q100 222 221 484q-161 6 -600 14q-5 19 -6 37q0 36 24 57q27 24 86 24l31 -1q190 -16 516 -19q40 87 203 451q83 -12 83 -76q0 -39 -28 -94q-57 -108 -136 -283l473 -5l197 439q84 -8 84 -78q0 -37 -29 -91 q-55 -104 -131 -272q228 -4 363 -15q92 -8 92 -101l-2 -20l-508 13q-62 -140 -207 -473q302 -3 474 -16q92 -11 92 -102l-2 -20l-617 17q-130 -300 -215 -463q-29 -53 -74 -55h-6q-28 0 -67 20q138 302 228 501l-456 14q-207 -477 -249 -503q-23 -14 -45 -14q-30 0 -67 20 l228 500l-479 11q-7 21 -7 39zM668 646l462 -5l218 474l-469 14z" />
<glyph unicode="$" horiz-adv-x="1270" d="M0 316q0 19 10 72t76 105q47 37 108 37q25 0 53 -6l-25 -31q-25 -31 -51 -79q-36 -69 -36 -128q0 -43 26 -88t112 -80l284 677q-102 57 -166 137q-52 65 -52 145q18 142 154 269q151 138 360 156l102 249q99 -9 99 -92q0 -10 -3 -32t-27 -70l-28 -60q120 -19 191 -76 q83 -72 83 -204q0 -72 -30 -156t-100 -145q-61 -52 -141 -52l-26 1l28 44q81 123 132 248q32 79 32 142q0 52 -36 79q-61 42 -168 42q-109 -249 -246 -595q56 -25 108 -42q147 -47 179 -168q6 -25 6 -54q0 -105 -94 -247q-118 -163 -253 -220q-121 -51 -235 -51l-28 1 q-48 -112 -85 -188q-33 -66 -97 -66q-32 0 -71 20q69 169 106 253q-151 40 -207 122q-44 65 -44 131zM420 97q115 17 213 98.5t159 187.5q63 109 63 198q0 85 -76 115q-47 16 -100 39q-146 -368 -259 -638zM486 1069q0 -23 17 -71.5t95 -104.5l37 86l173 414 q-162 -55 -276 -205q-46 -64 -46 -119z" />
<glyph unicode="%" horiz-adv-x="1463" d="M100 42l360 466q655 846 925 1199q41 -15 62 -42q14 -20 14 -44q0 -50 -59 -120q-155 -175 -582 -752q-341 -462 -546 -706q-39 -43 -84 -43q-27 0 -53 15zM250 1393q0 117 83.5 200.5t200.5 83.5t201 -83.5t84 -200.5t-84 -200.5t-201 -83.5t-200.5 83.5t-83.5 200.5z M372 1393q0 -68 47.5 -115t114.5 -47q68 0 115 47t47 115q0 67 -47 114.5t-115 47.5q-67 0 -114.5 -47.5t-47.5 -114.5zM776 297q0 123 87.5 210.5t209.5 87.5q123 0 210.5 -87.5t87.5 -210.5q0 -122 -87.5 -209.5t-210.5 -87.5q-122 0 -209.5 87.5t-87.5 209.5zM904 297 q0 -70 49.5 -119.5t119.5 -49.5q71 0 120.5 49.5t49.5 119.5q0 71 -49.5 120.5t-120.5 49.5q-70 0 -119.5 -49.5t-49.5 -120.5z" />
<glyph unicode="&#x26;" horiz-adv-x="1667" d="M0 356q0 62 23 136q35 99 104.5 157t144.5 85t129 35l54 7l-23 14q-65 41 -105 133q-29 70 -29 155q0 216 140 358q147 149 396 208q118 27 217 27q86 0 159 -20q158 -44 212.5 -129.5t54.5 -161.5q0 -53 -20 -113q-41 -107 -123 -168.5t-171 -90.5t-154 -36l-64 -8 q164 -18 258 -18q183 0 271 39q86 44 158 182l14 25q19 -70 19 -116q0 -172 -183 -216q-115 -22 -241 -22q-52 0 -107 4q-185 13 -321 39l-136 25q20 115 102 128q157 24 315 74q250 78 298 187q14 36 14 69q0 44 -24 83q-43 69 -122.5 94.5t-151.5 25.5q-53 0 -113 -10 q-144 -27 -270.5 -85.5t-202 -147t-75.5 -204.5q3 -224 139 -263q58 -17 124 -20q29 -5 29 -76q0 -17 -3 -40l-81 -6q-233 -17 -383 -118q-87 -59 -108 -163q-2 -14 -2 -27q0 -87 71 -148q129 -111 322 -111q53 0 102 12q148 41 247.5 114t139 139.5t39.5 108.5q0 66 -79 66 q-92 -5 -157 -43q-93 -57 -129 -148q-14 -38 -22 -88q-83 104 -83 187q0 95 126 167q100 57 202 57q159 0 214 -154q12 -43 12 -84q0 -95 -64 -182q-92 -125 -256.5 -202.5t-341.5 -77.5q-151 0 -287 60q-126 56 -172 139t-46 157z" />
<glyph unicode="'" horiz-adv-x="492" d="M100 1181l189 404h5q81 0 98 -58v-7q0 -32 -30 -103.5t-70 -143.5t-58.5 -94t-35 -30.5t-30.5 -8.5q-28 0 -50 21z" />
<glyph unicode="(" horiz-adv-x="1074" d="M0 -2q0 147 64.5 387.5t185 518.5t261.5 492.5t271 281.5q33 16 86 29q41 10 81 10l25 -1q-74 -54 -121 -95t-100 -111q-229 -307 -401.5 -715.5t-238.5 -768.5q-13 -86 -13 -148q0 -45 7 -78q-37 21 -68 60t-37 89q-2 23 -2 49z" />
<glyph unicode=")" horiz-adv-x="974" d="M0 -199q74 53 121 94.5t100 111.5q229 307 401.5 715.5t238.5 768.5q13 86 13 147q0 46 -7 79q37 -21 68 -60t37 -89q2 -23 2 -49q0 -147 -64.5 -387.5t-185 -518.5t-261.5 -492.5t-271 -281.5q-33 -16 -86 -29q-41 -10 -81 -10z" />
<glyph unicode="*" horiz-adv-x="1029" d="M200 1278q0 14 18 32l23 19l180 16q-59 125 -72 159q-8 28 -8 44q0 31 24 32q28 0 54 -20l71 -136l44 192q57 0 68 -78q1 -6 1 -14q0 -25 -8 -68q55 39 75 50q33 17 52 17q23 0 25 -23q0 -16 -2 -26l-8 -27l-105 -83l170 16q5 -10 5 -22q0 -11 -7.5 -29t-50.5 -38 q-47 -19 -172 -31l105 -199q-16 -16 -43 -16q-51 0 -114 107q-19 -68 -28 -89q-26 -53 -48 -53q-17 0 -41 56l34 149l-148 -117q-24 17 -24 47q0 43 58 99l-39 -1q-89 0 -89 35z" />
<glyph unicode="+" horiz-adv-x="1213" d="M61 667q0 34 159 120h350l156 369l2 1q96 72 130 72q20 0 20 -24q0 -17 -11 -48l-157 -370h349l1 -1l28 1q64 0 64 -22q0 -33 -151 -118h-350l-157 -370q-104 -80 -139 -80q-18 0 -18 21q0 19 16 57l158 372q-350 0 -385 -1q-65 0 -65 21z" />
<glyph unicode="," horiz-adv-x="557" d="M0 -90q122 7 181 45q102 67 133 153q10 26 10 50q0 16 -7.5 43t-62.5 42q45 30 83 30q8 0 33 -4t52 -35q31 -37 31 -88q0 -50 -27.5 -126.5t-113.5 -139.5q-79 -50 -149 -50q-17 0 -68.5 8.5t-94.5 71.5z" />
<glyph unicode="-" horiz-adv-x="670" d="M84 410q13 78 24 108.5t49 30.5h424q-12 -139 -67 -140z" />
<glyph unicode="." horiz-adv-x="557" d="M0 31l116 236q103 0 103 -70q0 -39 -29 -89q-68 -118 -122 -118q-28 0 -50 21z" />
<glyph unicode="/" horiz-adv-x="847" d="M-150 -326l1028 2146q29 -7 49 -15q70 -31 70 -96q0 -52 -42 -119q-66 -111 -392 -807q-189 -401 -351 -736t-207 -385q-53 -43 -91 -43q-43 0 -64 55z" />
<glyph unicode="0" horiz-adv-x="1006" d="M0 371q2 303 212 743q108 219 227 339q184 186 365 186q36 0 69 -8q97 -28 145 -100q44 -68 44 -119q0 -19 -5 -34q-10 -26 -30 -26q-8 0 -18 5q-37 93 -138 113q-16 3 -33 3q-243 0 -472 -452q-198 -403 -198 -672q12 -159 62 -193q35 -21 73 -21q108 0 245 165 q81 98 150 212q151 254 250 557q50 154 55 191q15 61 55 61q19 0 30 -20q-14 -187 -73 -369.5t-131 -325.5q-160 -319 -346 -481q-144 -125 -273 -125q-38 0 -74 11q-191 68 -191 360z" />
<glyph unicode="1" horiz-adv-x="844" d="M0 86l197 305q204 321 310 516q74 141 182 388l102 236q-113 -49 -201.5 -129.5t-180.5 -184.5q-72 51 -72 109q0 50 48 103q125 134 253 210q76 45 118.5 50t53.5 5q62 0 114 -44q19 -19 19 -57q0 -34 -15 -83q-30 -105 -96 -242t-136 -271q-48 -93 -86 -170 q-75 -152 -182.5 -343t-199 -334t-117.5 -150q-83 12 -105 61q-5 11 -6 25z" />
<glyph unicode="2" horiz-adv-x="1424" d="M0 130l89 66q254 188 628 547q380 386 507 605q68 119 68 175q0 15 -6 20q-12 15 -76 15t-170.5 -48.5t-245.5 -178.5q-164 -161 -240 -334q-31 -70 -53 -153q-98 24 -104 131q2 64 61 164.5t138 196.5t140 147q230 183 399 198q23 2 44 2q135 0 203 -88q42 -57 42 -126 q0 -19 -9.5 -74.5t-68.5 -153.5q-90 -149 -282 -358q-159 -182 -480 -457l-286 -239l58 13q326 73 497 73q131 0 247.5 -16.5t188.5 -67.5q38 -30 38 -80q0 -20 -8 -46l-17 -44q-97 34 -183 53q-138 30 -289 30q-169 0 -442 -59q-204 -43 -271 -43q-89 0 -110 88z" />
<glyph unicode="3" horiz-adv-x="1223" d="M0 153q71 -21 160 -21q52 0 159 12.5t258 72.5t245 152q80 78 80 173q0 148 -239 153l-51 1q-62 0 -121 -4q-46 -3 -81 -3q-28 0 -48 2q-28 5 -42.5 22.5t-19 39t-4.5 40.5q0 16 5 59l53 -1q150 0 307 47t290 134.5t198 188.5q44 68 44 132q0 30 -10 60q-38 89 -138 98 l-32 1q-87 0 -196 -38.5t-204 -103t-124 -123.5q-32 39 -32 79q0 31 31 83.5t115 109.5t150 80q133 45 233 45q65 0 155 -33t128 -158q18 -59 18 -116q0 -81 -48 -185.5t-172 -205t-272 -148.5l31 -13q30 -14 69 -45.5t68.5 -83.5t30.5 -127q-4 -133 -87 -235.5 t-213.5 -170.5t-277.5 -99q-110 -23 -212 -23q-33 0 -65 2q-69 7 -109 78q-16 28 -30 72z" />
<glyph unicode="4" horiz-adv-x="1169" d="M0 835q180 174 392 384q227 229 227 410q0 26 -10 62l13 -1q71 -5 106 -62q19 -31 19 -70q0 -91 -76 -209.5t-181 -232t-188 -189.5l-83 -76q127 34 276 34q23 0 122.5 -3.5t234.5 -45.5l452 772l15 -3q43 -9 71 -44q20 -26 22 -60q0 -25 -31 -77t-89 -137 q-106 -151 -252 -401q-198 -357 -327 -621l-130 -265l-14 4q-41 12 -69 41q-21 21 -21 48q0 75 148 349q62 114 160 283l-66 13q-67 12 -169 19q-43 3 -88 3q-61 0 -150 -8.5t-185 -52.5q-16 -7 -29 -7q-50 0 -81 82z" />
<glyph unicode="5" horiz-adv-x="1335" d="M0 182l3 45l61 -26q163 -71 357 -71q13 0 81 1.5t191 56.5q140 69 221 182q99 138 99 271q0 83 -46 137q-53 52 -159 52q-8 0 -71 -2t-187.5 -42t-201.5 -93q-32 -22 -62 -22q-1 0 -17.5 0.5t-43 15.5t-46 34.5t-41.5 50.5l470 757l-23 -1q-4 45 -4 56l1 24q4 58 40 70 q100 24 352 24q239 0 368 -21q85 -14 104 -151q-198 17 -396 17q-136 0 -273 -8q-47 -88 -409 -682l56 23q188 78 355 78q79 0 157.5 -28.5t132.5 -116.5q45 -81 45 -177q0 -27 -10.5 -105.5t-85 -201t-192.5 -209.5q-174 -120 -441 -120q-132 0 -248 27q-82 19 -96 32 q-41 45 -41 123z" />
<glyph unicode="6" horiz-adv-x="1077" d="M0 496q0 34 4 67q35 235 165.5 465t307 405t348.5 245q56 21 98 21q77 0 135 -54l-83 -44q-236 -127 -456 -356q-265 -276 -341 -633q-16 -76 -16 -144q14 -262 225 -330q25 -5 51 -5q71 0 165 45.5t185 141.5t132 208q20 55 20 107q0 53 -21 103q-38 71 -123 71 q-4 0 -50 -1.5t-139 -44.5t-143 -88q-2 14 -2 27q0 170 176 232q73 24 142 24q35 0 101 -11.5t129.5 -80t66.5 -185.5q-2 -181 -96.5 -337.5t-246.5 -251.5q-148 -92 -316 -92h-11q-142 8 -237.5 95t-138.5 214q-31 94 -31 187z" />
<glyph unicode="7" horiz-adv-x="1037" d="M0 43q9 47 84.5 207.5t181 352t204.5 332.5q193 259 486 501l103 85l-237 -22q-135 -11 -327 -11q-190 0 -260 16q-45 12 -71 147q165 -22 375 -22q270 0 689 29q12 -55 12 -92q0 -71 -40 -102q-97 -64 -259.5 -217t-339.5 -395q-174 -253 -364 -685l-65 -149l-63 -14 q-22 -4 -44 -4q-35 0 -50 9t-15 34z" />
<glyph unicode="8" horiz-adv-x="1047" d="M0 340q0 57 20.5 157t92.5 212.5t156 157.5q18 8 39 8q14 0 31 -4q-75 153 -75 314q0 127 53 242q106 199 278 256q55 18 110 18q115 0 228 -80q78 -61 99 -142q15 -54 15 -109q0 -90 -35 -210q-46 -161 -126 -282q-108 -165 -184 -165q-35 0 -112 17l25 19 q73 54 141 162q88 142 141 303q30 91 30 174q0 78 -47 124q-80 71 -178 71q-76 0 -151 -54.5t-124 -188.5q-24 -74 -24 -153q0 -40 12.5 -122t68 -199.5t127.5 -214.5q74 -106 74 -225q0 -3 -0.5 -66t-58.5 -167t-152 -159q-62 -34 -141 -34q-12 0 -64 3t-132 50t-113 132 q-24 76 -24 155zM144 300q0 -27 12.5 -92t112.5 -103q28 -9 55 -9q63 0 134.5 59.5t106.5 184.5q7 33 7 67q0 150 -161 348q-13 16 -24 33q-116 -105 -187 -264q-56 -132 -56 -224z" />
<glyph unicode="9" horiz-adv-x="1122" d="M0 300q0 55 24 118.5t95 82.5q-6 -37 -6 -78q0 -39 9 -104.5t57 -133.5q53 -75 149 -78q83 0 156 119.5t165 374.5l45 113q-81 -110 -168 -110q-16 0 -33 4q-94 25 -147 117q-44 78 -44 197q0 23 5 110.5t98 292.5q81 170 179 265q155 150 327 150q124 0 184 -87 q29 58 65 63q61 0 122 -90q-165 -139 -501 -1027q-116 -322 -218 -459.5t-255 -139.5h-11q-128 0 -200 67q-97 91 -97 233zM447 912q0 -68 18 -128.5t48 -76.5q6 -2 12 -2q32 0 92 70q113 130 291 445q59 136 156 370q-34 30 -101 30q-60 0 -139 -34q-174 -74 -284 -299 q-76 -167 -89 -291q-4 -45 -4 -84z" />
<glyph unicode=":" horiz-adv-x="559" d="M0 241l116 236q103 0 103 -70q0 -39 -29 -89q-68 -118 -122 -118q-28 0 -50 21zM239 778l116 235l9 1q9 0 23 -2q34 -5 55 -25q17 -18 17 -43q0 -39 -30 -89q-69 -118 -122 -118h-10q-19 0 -40 20z" />
<glyph unicode=";" horiz-adv-x="681" d="M0 180q122 7 181 45q102 67 133 153q10 26 10 51q0 15 -7.5 42t-62.5 42q45 30 83 30q8 0 33 -4t52 -35q31 -37 31 -88q0 -50 -27.5 -126.5t-113.5 -139.5q-79 -50 -149 -50q-17 0 -68.5 8.5t-94.5 71.5zM362 780l116 236q103 0 103 -70q0 -39 -29 -89 q-68 -118 -122 -118q-28 0 -50 21z" />
<glyph unicode="&#x3c;" horiz-adv-x="1220" d="M100 745q877 392 1055 510q15 -16 15 -57q0 -35 -16.5 -73t-52.5 -61q-266 -138 -717 -337q288 -210 443 -319q44 -32 44 -83q0 -54 -35 -110l-10 -15q-88 135 -726 545z" />
<glyph unicode="=" horiz-adv-x="1260" d="M100 486l68 140h840l-68 -140h-840zM252 798l68 140h840l-68 -140h-840z" />
<glyph unicode="&#x3e;" horiz-adv-x="1220" d="M100 257q0 35 16.5 73t52.5 61q266 138 717 337q-288 210 -443 319q-44 32 -44 83q0 54 36 110l9 15q88 -135 726 -545q-877 -392 -1055 -510q-15 16 -15 57z" />
<glyph unicode="?" horiz-adv-x="1482" d="M-50 -280l89 239q20 4 44 4q65 0 88 -40q6 -16 6 -33q0 -29 -22 -73q-59 -125 -131 -125q-34 0 -74 28zM96 125q5 84 85 293q63 165 113 236q91 116 206.5 161.5t275.5 75.5q90 19 199 46q75 18 163 58t158 99q95 80 95 177q0 46 -29.5 88.5t-92.5 70.5q-80 34 -187 34 q-96 0 -212.5 -25.5t-225 -88.5t-164.5 -157q-39 52 -39 105q0 30 22.5 86t126.5 123.5t255 99.5q93 20 195 20q65 0 134 -8q144 -18 224 -108q84 -96 84 -253q0 -117 -61.5 -207t-165 -152.5t-228.5 -98.5q-98 -28 -202 -47q-131 -23 -239.5 -59.5t-159.5 -113.5 q-62 -107 -119.5 -241t-93 -232.5t-35.5 -106.5q-32 13 -59 53q-23 33 -23 72z" />
<glyph unicode="@" horiz-adv-x="1655" d="M0 780q0 259 141 486q129 205 353 325q181 97 411 97q54 0 110 -5q180 -22 333.5 -124.5t239.5 -269.5q67 -130 67 -288q0 -44 -5 -90q-32 -217 -136 -363.5t-235 -223.5q-147 -88 -262 -88q-69 0 -125.5 45t-56.5 135q0 15 2 31q-127 -191 -248 -191q-22 0 -45 6 q-106 27 -169 116q-59 82 -59 210q0 11 2.5 87.5t97.5 264.5q206 389 477 389q78 0 146 -33q47 -24 71 -57t29 -46q1 -2 2 -2l62 135h5q89 0 133 -47q17 -18 17 -46q0 -13 -4 -28q-57 -113 -176 -367q-172 -366 -172 -447q0 -14 5 -20q14 -9 33 -9q43 0 125 53t175 167.5 t124 242.5q18 96 18 178q0 126 -55 253.5t-177 212.5t-237 102q-49 7 -97 7q-144 0 -301 -73.5t-282.5 -227t-157.5 -334.5q-17 -98 -17 -188q0 -124 42 -273.5t208.5 -268.5t468.5 -136q-3 -53 -100 -72q-28 -5 -64 -5q-282 0 -471 157q-115 96 -184 263q-62 150 -62 360z M492 540q0 -60 18.5 -115t52.5 -71q7 -3 14 -3q90 0 355 394q52 120 171 371q-55 96 -168 96q-169 0 -345 -325q-78 -154 -93 -268q-5 -43 -5 -79z" />
<glyph unicode="A" d="M0 1515q101 155 369 155q163 0 388.5 -73.5t476.5 -269.5q161 -129 295 -292q421 621 608 871q175 233 192 250q1 2 13 3q12 0 30.5 -4.5t38.5 -19.5q40 -30 40 -68q0 -46 -37 -170t-104 -323q-168 -497 -220 -748q-43 -231 -43 -426q0 -163 19.5 -300t49 -238t52.5 -154 l23 -53q-55 -20 -98 -20q-14 0 -38.5 3t-55.5 22.5t-52 60t-47.5 171.5t-41.5 333q-72 237 -347 552q-592 -891 -783 -1070q-101 -88 -244 -88q-115 0 -214.5 73t-118.5 243l-1 30q0 109 56 190t149 121q79 34 157 34q15 0 69 -4t113 -62q-50 -6 -112 -47.5t-107.5 -105.5 t-45.5 -135q0 -70 71 -133q32 -27 69 -27q47 0 125 61t229.5 273.5t375.5 553.5l123 184q-153 159 -370 337q-159 122 -339.5 187.5t-342 91.5t-265.5 29zM1606 920q163 -238 246 -401q20 352 211 906q64 186 159 444q-329 -514 -616 -949z" />
<glyph unicode="B" horiz-adv-x="1978" d="M0 -91l24 -21q23 -21 79 -46q110 -49 288 -49q46 0 143 6t292 53q244 64 394 186t217 261q62 128 62 235q-6 135 -74 187q-72 54 -184 54q-168 -10 -313 -54q-159 -360 -241 -573l-82 -213q-30 -6 -53 -6q-86 0 -86 88q5 62 33 130q96 223 760 1686q111 -33 111 -127 q0 -34 -20 -80q-40 -89 -103 -219q-86 -178 -225 -478q129 19 276 111t273.5 229.5t195.5 291.5q48 109 48 212q0 42 -8 83q-22 86 -138 135q-101 43 -243 43q-219 -9 -409.5 -98t-360.5 -281q-356 -417 -356 -683q0 -77 27 -120l12 -19l-27 20q-83 56 -121 158 q-20 50 -20 117q5 111 57 218q195 377 510.5 594.5t649.5 218.5q98 -1 210.5 -25t208 -82.5t140.5 -162.5q31 -82 31 -169q0 -91 -51.5 -232t-211 -309.5t-370.5 -285.5q133 -36 206 -95q124 -110 124 -284q-13 -231 -176.5 -418.5t-432 -319.5t-606.5 -156l-43 -1 q-188 0 -295 93q-87 74 -113 166z" />
<glyph unicode="C" horiz-adv-x="1567" d="M0 62q0 -163 72 -273.5t248 -156.5q42 -13 104 -13q30 0 101.5 7t217 93t327.5 294q263 307 635 779l-38 97q-44 -50 -91 -110q-238 -282 -512 -594q-364 -409 -585 -443q-33 -5 -62 -5q-147 0 -191 117q-27 72 -27 163q0 370 416 1112q142 243 295 420q174 201 311 303 q171 145 306 183q28 8 55 8q57 0 107 -35q64 -54 64 -124q0 -13 -8 -62.5t-65.5 -137t-111.5 -153.5q-16 -19 -29 -36q-65 -78 -149 -161q-177 -176 -360 -176h-19q58 -119 157 -119q179 0 440 278q175 191 238 403q20 65 20 130q0 22 -5.5 75.5t-77.5 126.5 q-114 106 -282 106q-137 0 -298 -83q-340 -175 -700 -691q-489 -692 -503 -1322z" />
<glyph unicode="D" horiz-adv-x="2797" d="M0 496q0 181 137 459q109 219 293.5 447.5t436.5 414.5q334 238 596.5 303t483.5 65q85 0 171 -8q113 -8 241 -61t236.5 -152t154.5 -220t46 -238q0 -225 -135 -472q-165 -303 -465 -610q-122 -126 -211 -203q-84 -74 -224.5 -176.5t-299.5 -199.5t-283.5 -148.5 t-197.5 -51.5q-20 0 -36 3q-133 32 -163.5 75.5t-30.5 86.5q0 76 108 299q107 230 604 1392q98 -16 130 -84q13 -26 13 -61q0 -48 -27 -111q-82 -187 -582 -1432q91 20 321.5 160t493 354.5t450.5 457.5q335 497 341 801q0 198 -123 328q-159 161 -468 182q-212 0 -460 -99 q-290 -115 -599 -353q-194 -154 -340 -354t-243.5 -406.5t-143.5 -374.5t-46 -265v-12l-22 7q-62 18 -109.5 83.5t-47.5 173.5z" />
<glyph unicode="E" horiz-adv-x="2085" d="M0 86q0 22 10.5 109.5t115.5 227.5t261.5 256t326.5 197t317 116q-115 63 -192 157q-99 122 -99 269q0 94 46 199q83 176 255 307.5t385 195.5q146 43 289 43q299 -5 472 -182q105 -139 105 -364v-21q0 -151 -82 -277q-49 -71 -163 -71q-41 0 -90 9q179 309 179 501 q0 85 -51 140q-114 109 -313 109q-131 0 -288 -50t-302 -157t-221 -250q-25 -54 -25 -109q0 -75 62 -181t247 -175q106 -38 214 -59q90 -17 318 -49l1 -28q0 -30 -8 -61.5t-49 -66.5q-11 -9 -45 -9q-46 0 -141 11q-158 17 -252 17q-70 0 -134 -8q-120 -14 -272.5 -72 t-301 -149.5t-256 -207t-138.5 -245.5q-9 -35 -9 -71q0 -96 62 -195q108 -161 376 -163q179 0 390 89.5t399.5 223.5t300.5 266q49 -37 49 -79q0 -68 -199 -216q-131 -97 -305 -190t-354 -151q-164 -53 -300 -53l-28 1q-335 14 -472 204q-91 131 -91 262z" />
<glyph unicode="F" horiz-adv-x="1387" d="M0 -292q0 5 1.5 27t26.5 82q65 146 621 1341q-115 10 -229 27q10 38 52 85.5t111 47.5l135 -11l289 622q-305 29 -479 29q-127 0 -199 -18q-210 -51 -217 -245q3 -81 50 -138.5t88 -69.5q-5 -44 -43 -70q-31 -20 -68 -20q-9 0 -37 3t-60 51q-41 69 -41 173q0 130 43 225 q39 88 143 153q143 81 529 81q173 0 357 -10q19 42 34.5 60.5t49.5 18.5q35 -2 63 -20.5t33 -33.5l-17 -34q89 -5 185 -13q211 -21 417 -21q192 0 387 45q13 -35 13 -64q0 -71 -75 -106q-83 -40 -328 -40q-209 0 -556 38l-113 11q-200 -442 -277 -618q55 -3 112 -3 q208 0 440 43q1 -1 1 -11q0 -57 -78 -146q-120 -139 -205 -280.5t-99 -240.5l-17 7q-15 7 -31 25q-29 31 -29 82q0 23 6 50q19 80 68 160.5t113 165.5q-88 -8 -187 -8q-77 0 -161 5q-518 -1161 -681 -1522q-26 -4 -41 -4q-100 0 -100 89z" />
<glyph unicode="G" horiz-adv-x="1755" d="M0 361q0 162 42.5 356t127 394t193.5 358q242 348 517.5 523t537.5 175q248 0 364 -130q53 -64 53 -157q0 -16 -6 -81t-77 -188.5t-191 -226.5q-304 -262 -428 -262q-19 0 -34 6q-39 17 -62 41.5t-43 64.5q21 -8 46 -9q145 0 394 261q94 98 170.5 209.5t94.5 204.5 q3 18 3 33q0 69 -65 105q-47 22 -110 22q-88 0 -247.5 -58.5t-382.5 -251t-399 -496.5q-183 -331 -254 -614q-56 -221 -56 -387q0 -46 11.5 -162.5t99.5 -174.5q16 -8 36 -8q185 0 876 795q246 283 446 522q44 -22 44 -55q0 -40 -66 -110q-14 -28 -37 -69 q-288 -523 -520 -1183q-45 -135 -108 -260q-142 -283 -307 -320q-37 -6 -70 -6q-71 0 -139 36t-106 116q-32 68 -32 143q0 171 171 171q22 0 60 -7q-41 -129 -41 -218q0 -26 5 -59t29.5 -60t73.5 -27q105 0 238 315q88 207 220 625q32 101 61 189q-549 -650 -772 -650 q-19 0 -36 4q-162 48 -239 182q-86 150 -86 379z" />
<glyph unicode="H" horiz-adv-x="1993" d="M0 1116q0 13 3 42t27 90q80 208 420 543q213 205 365 274q147 66 266 66q120 0 178 -75q46 -58 46 -122q0 -14 -2 -29q-23 -122 -101 -296q-84 -185 -307 -631q178 29 337 66q204 49 463 85l468 1030q136 -38 141 -151q0 -53 -27 -115q-54 -119 -138 -293 q-88 -182 -215 -453q-247 -539 -375 -845q-119 -285 -270 -672q-40 -10 -69 -11q-109 0 -109 106q0 14 4 50t41 127q125 293 446 999q-185 -21 -348 -54q-195 -37 -411 -65q-138 -279 -234 -535.5t-193 -599.5l2 -9q0 -10 -2.5 -12.5t-9.5 -2.5q-9 0 -32 19q-27 20 -68 65 q-27 33 -27 101q0 259 335 937q-70 -6 -131 -14q-95 -13 -163 -13q-61 0 -86 28q-38 51 -38 95v24q1 23 26.5 59.5t59.5 63t86 54.5q-17 -51 -17 -83q0 -55 43 -55l302 47q144 275 331 599q135 239 135 350q0 89 -78 89q-73 0 -199.5 -74t-290.5 -222q-155 -144 -257 -270.5 t-160.5 -223t-81.5 -151.5l-24 -56l-11 8q-50 34 -50 116z" />
<glyph unicode="I" horiz-adv-x="1077" d="M0 1138q0 12 3 40t28 87q84 201 439 525q384 342 600 342q106 -3 169 -56t104 -126q24 -41 24 -98q0 -43 -23 -129q-40 -148 -311 -624q-129 -225 -273 -498q-242 -479 -338 -846l-34 -130q-6 -5 -19 -6q-45 0 -145 110q-13 18 -13 55q0 133 195 563.5t670 1189.5 q146 234 146 344q0 95 -92 95q-77 0 -208 -67t-302 -210q-162 -138 -270 -261t-171 -218t-89 -150l-26 -54q-64 38 -64 122z" />
<glyph unicode="J" horiz-adv-x="1857" d="M0 273q3 277 102 482q90 187 214.5 300.5t240.5 155.5q68 24 118 24q36 0 63 -12q-163 -113 -304 -297.5t-220 -396.5q-61 -164 -61 -319q6 -331 187 -437q51 -27 113 -27q153 0 396 212q152 132 296 303q305 362 487 780q200 460 200 766q-5 169 -75 224q-13 8 -30 8 q-134 0 -591 -496q-17 19 -17 73q10 137 91.5 256.5t277.5 226.5q118 60 212 60l26 1q286 0 286 -407l-1 -48q0 -185 -72 -395q-165 -459 -394 -817t-458 -578.5t-396 -268.5q-103 -27 -192 -27q-294 0 -426 280q-73 158 -73 374z" />
<glyph unicode="K" horiz-adv-x="1792" d="M0 1115q0 10 2 36.5t25 85.5q81 209 417 539q212 208 356 295t268 87q112 0 181 -51t85 -144q1 -10 1 -21q0 -103 -97.5 -322.5t-247.5 -511.5q-263 -514 -375 -804q96 140 290 379.5t345 389.5q524 500 907 775.5t489 275.5q104 0 146 -91q-925 -496 -1531 -1144 q0 -67 -4 -166q-7 -123 -7 -263q0 -46 1.5 -167.5t40.5 -280.5q28 -97 84 -153t116.5 -82t104.5 -33l44 -7l-26 -19q-112 -82 -215 -82q-26 0 -53 6q-274 80 -274 897q0 68 4 122q-272 -353 -574 -783q-28 -106 -59 -252q0 -7 -1 -7h-4q-20 0 -116 103q-32 36 -32 113 q0 395 760 1714q130 230 130 338q0 101 -90 101q-77 0 -207.5 -74t-293.5 -222q-155 -144 -257 -270t-160.5 -223t-82.5 -152l-24 -56l-11 7q-55 35 -55 117z" />
<glyph unicode="L" horiz-adv-x="1117" d="M0 -280q0 25 12 53q26 39 125 68q79 22 230 54v9q0 102 83 339t278.5 581.5t526.5 751.5q210 258 210 365q0 66 -78 66q-74 0 -206 -59.5t-299 -180.5q-151 -113 -248.5 -210t-151 -170t-73.5 -114l-21 -42l-11 10q-52 45 -52 120q0 12 2.5 39t27.5 79q87 183 437 419 q225 153 369 213q117 48 211 48q21 0 40 -2q97 -12 146 -56q59 -54 59 -130q0 -83 -78.5 -216t-220.5 -332q-177 -245 -384 -583q-172 -291 -259.5 -527t-107.5 -401q86 7 169 7q45 0 129.5 -3.5t218.5 -39.5q188 -54 188 -147q0 -15 -5 -32q-173 48 -382 70q-86 9 -173 9 q-124 0 -293 -24t-351 -132l-4 -1q-10 0 -29 18t-31 55q-4 14 -4 28z" />
<glyph unicode="M" horiz-adv-x="2297" d="M0 724q0 50 25 119q56 139 163 221q138 106 289 106q225 0 276 -217q4 -24 4 -56q0 -208 -183 -816l1173 1992q27 0 49 -7q53 -17 95 -88v-4q0 -43 -206 -565q-88 -222 -172 -442q-169 -445 -169 -531q0 -14 4 -20q135 208 391.5 576t513.5 706.5t393 459.5l2 1 q24 0 87 -68q12 -14 12 -39q0 -40 -40.5 -131.5t-150.5 -293.5q-55 -102 -122 -229q-348 -652 -591 -1476q-8 -31 -8 -62q0 -105 105 -231q-44 -10 -78 -10q-6 0 -29 0.5t-64 18t-73 62t-44 126.5q-2 21 -2 44q0 135 71 359t184.5 486t209.5 467q116 246 287 545 q-216 -286 -644 -923l-433 -652q-2 -2 -8 -3q-8 0 -11.5 1l-10.5 3t-19 7.5t-29.5 13.5t-62.5 34q-45 30 -45 119q0 17 6 86.5t59 239.5q95 304 269 693q71 159 167 360l-1176 -2013q-43 -27 -72 -27q-12 0 -26.5 4.5t-29.5 22.5t-25 54l-1 10q0 57 115 405q76 226 139 448 q56 197 56 307q0 100 -109 100q-69 0 -153.5 -43.5t-135.5 -132.5q-66 -128 -92 -209l-26 -82q-32 17 -52 37q-52 49 -52 137z" />
<glyph unicode="N" horiz-adv-x="1625" d="M0 -96q0 59 89.5 279t226.5 519t260 560q99 212 154 333q31 71 31 110q0 17 -6 28q-15 24 -46 24q-61 0 -152 -65q-64 -46 -106 -103q-52 -75 -86.5 -144t-68.5 -160l-22 18q-64 52 -85 136q-7 24 -7 52q0 30 11 80.5t69 132.5q101 136 227 194q99 45 193 45 q137 0 219 -76q47 -44 49 -127q0 -136 -114 -415q-117 -289 -361 -770q-95 -190 -162 -331t-78 -201l1698 2131q16 5 29 5q60 -2 141 -47q22 -13 22 -43q0 -33 -38 -110.5t-149 -251.5q-98 -155 -219 -363.5t-240 -470.5q-236 -533 -236 -897q0 -51 8 -120t30.5 -127 t41.5 -84l19 -26l-40 6q-116 18 -209 91q-126 98 -126 292q0 153 120 450q181 453 493 1019l107 194l-1527 -1927q-38 10 -65 26q-66 38 -94 125z" />
<glyph unicode="O" horiz-adv-x="2127" d="M0 343q0 416 245 879q358 646 812 841q201 86 445 96q139 0 251 -29q358 -92 374 -499q0 -192 -83 -462q-108 -342 -261 -635t-325 -508t-321.5 -311t-262.5 -96q-30 0 -59 6q-169 39 -304.5 195.5t-161.5 326t-26 247.5q0 219 85 496q89 273 221 466t265 274t245 81 q157 0 172 -100q3 -26 3 -41q0 -46 -23 -113l-27 15q-55 29 -124 29q-27 0 -58 -5q-237 -39 -426 -467q-137 -327 -155 -502t-18 -245q0 -175 48 -298q66 -173 253 -203q131 0 308 142q164 140 339.5 407.5t318 573t193 503t50.5 295.5q0 83 -25 137q-81 143 -356 172 q-161 0 -352 -73q-242 -92 -469.5 -299.5t-377.5 -528.5q-105 -234 -161 -418.5t-77.5 -321.5t-21.5 -227t8 -134l7 -44q-103 4 -135.5 136t-32.5 242z" />
<glyph unicode="P" horiz-adv-x="1355" d="M0 -332q0 87 238 635q200 460 341 747q181 357 373 677l23 1q86 0 104 -36q9 -16 9 -37q0 -59 -103 -228q-71 -121 -179 -335l-148 -296q56 10 199.5 83.5t309 188t287.5 245.5q241 273 241 492q0 102 -62 168q-87 82 -233 82q-180 -7 -362 -81.5t-342 -190.5 q-157 -118 -272.5 -264t-179.5 -277.5t-66 -204.5l-17 4q-47 11 -82.5 49t-35.5 95q0 137 189 372q153 190 391 345q216 137 443 204q152 45 299 45q73 0 144 -11q91 -14 177 -77.5t135 -170.5q34 -74 34 -165q0 -343 -496 -709q-254 -187 -432.5 -265.5t-367.5 -132.5 l-33 -10q-47 -113 -387 -988q-25 -3 -36 -3q-41 0 -69 10q-34 12 -34 39z" />
<glyph unicode="Q" horiz-adv-x="2124" d="M0 303q16 397 216 826q306 675 810 917q234 113 525 113q45 0 92 -3q179 -11 303 -106t164 -286q14 -69 14 -153q0 -147 -44 -338q-97 -396 -257.5 -735t-348.5 -569q255 -81 337 -193q39 -54 39 -102q0 -26 -10 -55l-59 32q-166 89 -453 163q-196 -181 -368 -181 q-16 0 -32 2q-116 16 -225 82t-194 183q-85 -13 -124 -59h-5q-11 0 -37.5 5.5t-57.5 20.5t-43 37q-4 6 -4 14q0 16 19 35q57 59 168 97q-77 176 -77 410q0 175 51 388q70 277 191.5 479t272.5 306q130 90 263 90q161 0 161 -144q0 -37 -15 -96l-29 11q-39 13 -94 13 q-310 0 -503 -524q-115 -330 -115 -619q0 -160 33 -284q83 9 168 9q204 0 528 -64q154 176 298.5 447t250.5 562t143 526q13 85 13 152q0 121 -41 188q-104 144 -333 144q-185 0 -413.5 -103.5t-445 -324.5t-346.5 -551q-194 -520 -194 -900q0 -125 22 -208l12 -43l-14 -1 q-100 0 -163 129q-49 96 -49 261zM638 -92q84 -125 215 -125q102 0 227 81q-209 33 -442 44z" />
<glyph unicode="R" horiz-adv-x="1656" d="M0 978q0 176 196 476q157 238 397 430q350 273 712 273q89 0 179 -16.5t186.5 -94t151.5 -209.5q34 -82 34 -183q0 -62 -13 -132q-36 -158 -134 -311.5t-209.5 -277.5t-188.5 -193q-71 -65 -213.5 -156t-285.5 -159.5t-222 -68.5h-2q63 -96 271 -267q236 -198 460 -308 q90 -44 192 -81q-24 -81 -134 -81h-26q-22 0 -76 14t-126 45q-151 60 -411 264q-204 167 -266 297q-60 -157 -217 -582h-21q-39 0 -71 20.5t-32 58.5q0 138 347 970q209 511 423 947h14q98 0 118 -52q8 -22 8 -49q0 -86 -109 -308q-61 -130 -172 -397l-152 -374 q55 11 200 101.5t312.5 232.5t291.5 306q182 254 232 481q18 81 18 149q0 124 -59 207q-93 121 -247 121q-275 0 -692 -341q-164 -138 -281.5 -322t-182 -353t-67.5 -264l-17 6q-47 17 -83 67q-33 46 -33 114z" />
<glyph unicode="S" horiz-adv-x="1884" d="M0 447q0 144 60 284.5t199 239.5q129 89 254 89q33 0 80 -11t92.5 -38.5t70.5 -51.5l24 -23q-84 0 -202.5 -54t-233.5 -169q-88 -94 -126 -250q-20 -81 -20 -162q0 -74 33.5 -175t153.5 -210q173 -119 354 -119q204 6 354.5 120.5t222.5 323.5q46 130 46 292 q0 97 -17.5 205.5t-74.5 369.5q-391 -436 -466 -681q-39 23 -69 98q-16 40 -16 83q0 37 12 76q55 137 189 300t309 340q-27 158 -27 304q0 5 5 103.5t54.5 198t176.5 169.5q116 56 227 56q83 0 164 -32q95 -42 155 -155q-124 -233 -387 -504q-2 -3 -173 -185 q130 -553 130 -838q0 -313 -167 -536q-248 -286 -607 -286q-418 0 -638 350q-142 243 -142 478zM1367 1600q0 -50 15 -121l92 92q66 65 142 130q70 61 138.5 126t126.5 140q-38 10 -84 10q-104 -1 -211 -54t-172 -153q-47 -73 -47 -170z" />
<glyph unicode="T" horiz-adv-x="1035" d="M0 -286q0 37 24 95q44 102 344 756q428 934 586 1282l57 124q-341 33 -477 33q-97 0 -155 -15q-44 -11 -92.5 -37.5t-83.5 -75t-35 -127.5q0 -51 20 -92.5t47.5 -67.5t52.5 -33q-4 -43 -41 -68q-32 -21 -69 -21q-7 0 -34 3t-59 48q-43 69 -43 176q0 119 56 224 q52 98 159 157q166 84 446 84q220 -3 463 -27q420 -38 668 -38q243 0 388 53q13 -35 13 -66q0 -72 -71 -117q-80 -50 -345 -50q-205 0 -579 36l-51 4q-31 -66 -240 -537q-27 -64 -788 -1794q-36 -4 -46 -4q-115 0 -115 95z" />
<glyph unicode="U" horiz-adv-x="1761" d="M0 1659q0 18 8 89.5t94 177t214.5 169.5t270.5 64q152 0 287 -92q121 -83 121 -212q0 -102 -68.5 -271t-212.5 -464q-127 -260 -299 -637q-132 -299 -132 -449q0 -15 1 -29q16 -145 136 -145q130 2 311.5 123.5t367.5 329.5q42 49 75 95q62 188 131 341q35 81 67 163 q212 531 474 974l91 153q85 -13 122 -54q22 -25 22 -55q0 -18 -9 -39.5t-50 -91.5q-243 -401 -468 -934q-103 -252 -164 -476q-105 -387 -129 -670l-9 -100q-168 0 -168 251q0 125 29 278q-217 -238 -404 -368q-176 -123 -327 -123q-176 8 -305 186q-29 45 -29 117 q0 55 29 173t124.5 334t209.5 450q129 262 233 501.5t131 409.5l1 21q0 105 -122 105q-73 0 -185.5 -48.5t-229 -166.5t-167.5 -286q-72 101 -72 206z" />
<glyph unicode="V" horiz-adv-x="1783" d="M0 1533q0 17 8.5 83.5t92 165.5t204.5 158t249 59q134 -2 241 -87q83 -70 99 -168q6 -33 6 -72q0 -75 -26.5 -192.5t-86 -314t-126.5 -460.5q-6 -25 -15 -57q-152 -600 -152 -758q0 -95 64 -95q32 0 97.5 50.5t241.5 294t487 704.5q364 543 497 733q164 234 298.5 389 t225.5 183q39 10 71 10q44 0 78 -18q44 -24 69 -70q-140 -13 -502 -473q-230 -292 -647 -883l-310 -445q-185 -274 -311 -432t-234 -202q-43 -17 -89 -17q-72 0 -152 41q-83 46 -98 178q-4 42 -4 89q0 104 27.5 264t86.5 378t124 434.5t114.5 401.5t63.5 310l1 15 q0 87 -74 87q-72 0 -179.5 -64.5t-210.5 -174t-157 -237.5q-72 94 -72 192z" />
<glyph unicode="W" horiz-adv-x="2226" d="M0 1658q0 26 14 99t107 169t223 150q117 49 238 49q14 0 87.5 -4t180.5 -90q85 -73 96 -176q2 -21 2 -44q0 -89 -38.5 -220t-115.5 -333q-131 -347 -289 -864q-96 -313 -97 -421q0 -68 38 -68q37 0 113.5 119t253.5 459q127 240 311 578q149 307 225 354q40 25 85 25 q35 0 84 -24q-165 -273 -229 -414q-101 -231 -159 -541q-41 -215 -41 -383q0 -74 8 -139q18 -116 61 -116q14 0 56.5 30.5t159 240.5t282.5 540q77 153 165 324q172 335 327 595t288.5 417t241.5 183q32 6 62 6q51 0 104.5 -24t81.5 -79q-83 -1 -207 -121 q-235 -227 -571 -774q-241 -391 -427 -758q-82 -164 -170 -324q-254 -459 -430 -459q-56 0 -109 43q-104 93 -104 317q0 7 2 127.5t97 441.5q-170 -266 -325 -573q-78 -157 -137 -247q-71 -110 -154 -110q-59 0 -141 52q-57 40 -57 163q0 7 1.5 76.5t48 264t117 420.5 t146.5 453q80 239 143.5 444.5t87.5 342.5q2 16 2 30q0 82 -80 82q-73 0 -187 -61.5t-230 -172t-181 -243.5q-61 95 -61 188z" />
<glyph unicode="X" horiz-adv-x="1777" d="M0 -250l51 2q145 6 270 95q94 69 271 298.5t477 642.5l-21 208q-53 532 -101 734q-26 91 -87 91q-76 -7 -153 -89.5t-133 -209t-62 -266.5q-141 122 -141 301q0 114 74.5 248.5t221.5 200.5q77 35 166 35q80 0 169 -28q95 -41 143 -135.5t71.5 -262.5t42.5 -408l13 -137 q103 148 200 290q141 206 263.5 376t222.5 278.5t175 130.5q51 13 95 13q79 0 135 -33q48 -29 64 -65q-130 -7 -480 -402q-268 -304 -654 -802q10 -104 19 -211q14 -186 38 -372t78 -361q46 -136 128 -136q51 0 102 49q5 -30 5 -56q0 -70 -40 -110t-108 -40q-74 0 -131 28 q-197 106 -293 951q-185 -239 -318 -419q-195 -267 -320.5 -405t-240.5 -148l-27 -1q-87 0 -140 57q-24 26 -45 68z" />
<glyph unicode="Y" horiz-adv-x="1566" d="M0 -507q168 4 308 63.5t288.5 231.5t338.5 513q-215 -211 -411 -213q-134 0 -240 154q-33 56 -33 111q0 52 18 149q27 150 228 614q87 201 158 388q83 218 90 343q0 93 -91 93q-46 0 -123 -35t-168 -127.5t-150 -227.5q-60 80 -60 162q0 18 9 77t85 143.5t183.5 134.5 t217.5 50q117 -2 207 -73q97 -77 97 -196q0 -99 -56.5 -253.5t-167.5 -405.5q-80 -183 -180 -424q-113 -278 -113 -412q0 -147 100 -147q117 10 272 132t322 327q227 450 446 910q141 294 284 587q78 -15 126 -60q35 -32 35 -66q0 -13 -5.5 -25.5t-31.5 -66.5 q-383 -814 -674 -1349q-106 -193 -262 -448q-385 -629 -579 -731q-104 -46 -187 -46q-5 0 -51 2t-106.5 31t-91.5 60z" />
<glyph unicode="Z" horiz-adv-x="2067" d="M0 -218q0 67 62 142l2089 1675q-471 -46 -784 -85q-409 -50 -536 -50q-53 0 -87 6q-224 51 -224 215q0 70 50.5 136.5t120.5 111.5l24 16q-28 -81 -28 -149q0 -82 71 -113q37 -13 109 -13q87 0 274 17q79 7 163 13q109 9 292 35q398 59 580 59q130 0 161 -35 q30 -43 30 -84q0 -78 -52 -141l-18 -22l-1926 -1613q237 62 419 101q436 93 723 93q201 0 301 -53q116 -70 173 -153.5t69 -153.5t12 -119q0 -26 -3 -51q-9 -71 -24 -114l-15 -44l-12 38q-12 37 -45 93.5t-95.5 117.5t-162.5 110.5t-210.5 67t-201.5 17.5q-83 0 -178 -10 q-359 -40 -762 -134q-203 -48 -264 -48q-38 0 -53 14q-31 35 -36.5 62t-5.5 45z" />
<glyph unicode="[" horiz-adv-x="758" d="M0 60q0 28 18.5 124t193.5 428q168 332 293 634q121 294 209 432q84 132 176 132q35 0 79 -29q40 -27 68 -69q20 -31 20 -67q0 -11 -2 -24q-44 45 -87 45q-100 0 -190 -203q-156 -356 -321 -700q-116 -244 -263 -563q-54 -118 -54 -195q0 -68 42 -98q27 -20 70 -22 q-39 -5 -51 -5q-13 0 -37.5 2t-62.5 20q-101 46 -101 158z" />
<glyph unicode="\" horiz-adv-x="453" d="M-143 1850q0 85 90 107q15 4 50 6l606 -2301l-5 -7q-21 -36 -59 -36q-39 0 -91 60q-35 58 -131 417.5t-206 788.5q-188 745 -233 867q-21 56 -21 98z" />
<glyph unicode="]" horiz-adv-x="758" d="M0 44q0 12 2 24q45 -44 87 -44q101 0 190 202q156 356 321 700q116 244 263 563q55 119 55 195q0 68 -43 98q-27 20 -70 22q39 5 52 5q12 0 36.5 -2t62.5 -20q101 -46 101 -158q0 -27 -18.5 -123.5t-193.5 -428.5q-168 -332 -293 -634q-121 -294 -209 -432 q-84 -131 -176 -131q-34 0 -78 28q-41 27 -69 69q-20 31 -20 67z" />
<glyph unicode="^" horiz-adv-x="1014" d="M63 1249q88 45 330 323q115 133 229 276q174 -538 217 -649q14 -36 49 -104q-12 -9 -36 -9q-39 0 -80 24q-33 18 -50 52q-56 144 -64 178l-80 255q-236 -261 -329 -367q-28 -32 -67 -32q-53 0 -106 43z" />
<glyph unicode="_" horiz-adv-x="1108" d="M0 -135q0 25 35 76h1033q41 0 41 -23q0 -25 -50 -78h-1025q-34 0 -34 25z" />
<glyph unicode="`" horiz-adv-x="607" d="M150 1322q0 6 2 10q24 33 104 33l21 -1l180 -279q-37 -24 -70 -24q-47 0 -86 30q-18 15 -57 65q-94 121 -94 166z" />
<glyph unicode="a" horiz-adv-x="933" d="M-180 303q0 137 94 330q197 363 442 363q128 0 209 -111l16 -21l56 125q31 0 70 -11q77 -21 77 -70q0 -12 -169 -369q-157 -334 -157 -412q0 -19 9 -20q52 0 276 325l226 341v-90q-363 -615 -422 -661q-25 -19 -70 -19q-70 0 -122.5 41t-52.5 135q-110 -176 -236 -176 q-179 17 -233 207q-13 43 -13 93zM-19 276q0 -176 78 -186q85 0 331 364q91 211 156 341q0 10 -39 49t-104 39q-67 0 -145 -51.5t-184 -248.5q-93 -186 -93 -307z" />
<glyph unicode="b" horiz-adv-x="926" d="M-315 71q0 19 193 433q195 446 576 1190q148 -13 148 -80q0 -29 -123 -258q-189 -353 -270 -536q121 155 223 155q17 0 34 -4q147 -38 197 -201q13 -43 13 -94q0 -139 -94 -331q-188 -342 -487 -342q-149 0 -217 91q-12 -26 -22 -47.5t-14.5 -32.5t-36.5 -11 q-120 0 -120 68zM-97 147q37 -37 133 -37q220 0 377 285q98 195 98 320q-13 165 -76 173q-97 0 -305 -307q-86 -127 -124.5 -212t-102.5 -222z" />
<glyph unicode="c" horiz-adv-x="829" d="M-160 340q0 123 73 288q89 207 275 307q96 52 225 52l32 -1q77 -7 131 -59t54 -114q0 -2 -1.5 -35t-46.5 -88q-72 -90 -173 -90q-32 0 -108 12q73 26 145.5 77t108.5 103q18 26 18 45q0 20 -18 34q-32 21 -82 21q-22 0 -76.5 -9t-145.5 -81t-160 -217q-80 -178 -80 -321 q0 -58 17 -108q22 -65 74 -65t135 56q158 104 392 365q95 106 218 254l2 -97q-250 -326 -420 -491q-183 -177 -309 -177q-28 0 -55 8q-95 31 -157 110q-68 86 -68 221z" />
<glyph unicode="d" horiz-adv-x="1008" d="M-190 310q4 154 92 323q78 146 175 224q146 118 315 118q149 0 217 -90q86 192 393 813q22 3 44 3q15 0 41 -2.5t48 -22.5q13 -12 13 -30q0 -13 -6 -28q-32 -79 -255 -553q-158 -336 -191 -410q-55 -127 -115 -301q-59 -169 -59 -217q0 -19 8 -22q56 0 492 657l-7 -106 q-258 -458 -416 -604q-56 -53 -96 -53q-7 0 -14 2q-132 35 -132 149q0 67 34 179q-92 -169 -180 -263q-70 -76 -150 -76q-20 0 -40 5q-98 26 -156 108q-55 76 -55 197zM-20 246q0 -45 13.5 -92.5t44.5 -62.5q6 -3 13 -3q42 0 121 87q138 153 337 478l75 176q-28 40 -110 40 q-99 0 -207 -66q-103 -62 -190 -219q-73 -142 -90 -248q-7 -50 -7 -90z" />
<glyph unicode="e" horiz-adv-x="815" d="M-170 340q0 122 72 287q193 359 503 359q116 0 164 -46q43 -42 43 -88q0 -19 -8 -59.5t-54 -104t-151 -128.5q-87 -49 -390 -159q-14 -65 -14 -123q0 -67 20 -121q24 -67 76 -67q51 0 136 56q214 140 611 622l3 -97q-24 -30 -49 -63q-226 -289 -373 -430 q-184 -178 -310 -178q-28 0 -54 8q-95 31 -157 110q-68 86 -68 222zM30 477q33 14 82 30q111 34 237 101q106 64 146 121.5t40 97.5q-1 39 -16 49q-30 20 -72 20q-27 0 -83 -14t-142 -89q-124 -108 -192 -316z" />
<glyph unicode="f" horiz-adv-x="640" d="M-489 -584q0 149 94 408.5t258 642.5q167 401 270 572.5t186 171.5h7q40 0 65 -25q20 -20 20 -50q0 -10 -2 -22l-42 -48q-121 -141 -282 -475q12 -47 59.5 -94t118.5 -67h7q94 0 409 360l14 -85q-97 -127 -167 -207q-172 -195 -256 -195q-31 0 -88 41q-46 33 -73 60v-33 q0 -133 -21 -331t-108 -478q-57 -184 -139 -285q-60 -73 -138 -73q-29 0 -61 11q-131 46 -131 201zM-342 -600q0 -86 55 -93q44 0 92.5 87.5t95.5 240t82 321.5q58 280 58 442q0 49 -7 82l-26 -58q-120 -256 -255 -634q-95 -268 -95 -388z" />
<glyph unicode="g" horiz-adv-x="900" d="M-555 -548l1 28q0 88 97 185.5t401 275.5q28 -16 28 -34q0 -37 -91 -85q-360 -199 -366 -360q11 -124 173 -124q172 0 296 235q107 202 176 396l40 97q-66 -64 -139 -64q-19 0 -39 5q-150 40 -197 200q-13 44 -13 96q0 138 91 330q144 263 297 322q81 32 151 32 q158 0 219 -124q69 136 135 136q47 0 115 -88q-172 -223 -463 -939q-251 -607 -454 -726q-88 -47 -166 -47q-153 0 -228 88q-64 77 -64 165zM-27 276q0 -176 76 -186q81 0 302 320q75 166 184 382q-50 88 -158 88q-157 0 -311 -297q-93 -186 -93 -307z" />
<glyph unicode="h" horiz-adv-x="1057" d="M-205 160q0 61 34 186q101 377 623 1353q22 4 46 4q16 0 46 -2.5t55 -21.5q15 -12 15 -31q0 -29 -149 -323q-228 -448 -321 -669q-45 -104 -115 -301q-59 -168 -59 -218q0 -20 8 -20q23 0 94 88q104 129 199 269q74 106 160 223q206 279 283 294q20 2 37 2q58 0 89 -23 q25 -18 25 -47q0 -19 -12 -44q-321 -649 -321 -753q0 -16 8 -20q45 0 283 327q96 131 240 338l17 -93q-309 -425 -367 -512q-55 -87 -94 -128q-35 -38 -80 -38h-9q-102 8 -143 84q-16 30 -16 74q0 129 258 660q-86 -96 -192.5 -241.5t-171.5 -246.5q-87 -137 -176 -235 q-84 -92 -145 -92h-8q-141 22 -141 157z" />
<glyph unicode="i" horiz-adv-x="447" d="M-240 157q0 68 39 168q121 297 255 566l48 97q10 1 24 1q71 0 105 -27q21 -17 21 -43q0 -19 -11 -42q-126 -249 -221 -467q-99 -226 -99 -283q0 -17 9 -21q43 0 281 327q96 131 240 337l23 -88q-326 -447 -370 -514q-56 -86 -96 -129q-37 -39 -81 -39h-8q-102 8 -143 84 q-16 30 -16 73zM136 1045l86 191q25 5 53 5q96 0 96 -55q0 -21 -20 -56q-60 -100 -136 -104h-8q-29 1 -71 19z" />
<glyph unicode="j" horiz-adv-x="432" d="M-1019 -543q0 69 37 131.5t140 144.5t304 205q27 -15 27 -34q0 -35 -87 -85q-150 -86 -249.5 -181.5t-101.5 -180.5q4 -68 64 -98q42 -21 106 -21q23 0 49 3q112 15 203.5 185.5t212.5 486.5q130 323 180 442q78 182 207 447q26 52 53 75t52 23q29 0 57.5 -22.5 t61.5 -59.5q-51 -71 -104 -170q-129 -241 -328 -767q-230 -610 -427 -727q-88 -53 -168 -53h-16q-88 0 -150.5 39t-93.5 101q-29 57 -29 116zM187 1052l86 191q25 5 52 5q97 0 97 -55q0 -21 -20 -56q-60 -100 -136 -104h-8q-29 1 -71 19z" />
<glyph unicode="k" horiz-adv-x="827" d="M-320 66q0 26 17 58q163 335 348 741q208 456 394 832q137 -8 137 -71q0 -16 -9 -37q-14 -33 -54 -118q-231 -485 -369 -786q122 9 246 103.5t214 204.5q111 -15 111 -76t-130 -163q-98 -78 -222 -138q-119 -58 -218 -58h-7q9 -69 32.5 -172.5t65 -190t103.5 -104.5h7 q93 0 296 328q84 135 201 350l8 -88l-33 -71q-98 -213 -213 -379q-157 -229 -287 -229h-9q-95 14 -155 86t-91.5 162.5t-43.5 158.5l-187 -407q-23 -2 -42 -2q-83 0 -101 31q-9 16 -9 35z" />
<glyph unicode="l" horiz-adv-x="451" d="M-200 157q0 222 460 1164l182 371l47 1q49 0 65 -5q37 -11 37 -41q0 -15 -9 -35q-27 -62 -169 -365l-274 -592q-55 -127 -115 -301q-58 -167 -58 -217q0 -18 7 -22q62 0 492 655l-6 -106q-251 -453 -411 -606q-61 -58 -102 -58q-7 0 -14 2q-95 26 -113.5 72t-18.5 83z " />
<glyph unicode="m" horiz-adv-x="1557" d="M-201 159q0 61 33.5 185.5t154.5 408.5q30 72 108 234q111 0 148 -51q4 -13 4 -29q0 -27 -17 -72q-12 -32 -85 -183q-48 -100 -121 -295q-62 -166 -62 -215q0 -15 7 -19h2q21 0 60 58t89 147q62 113 128 209q57 81 135 183.5t152.5 180t122.5 83.5l23 1q30 0 68 -8 t57 -44q4 -13 4 -28q0 -51 -69 -187l-33 -68q-49 -106 -115 -298q-58 -166 -58 -215q0 -18 8 -22q16 0 103 152q67 122 145 238q28 39 61 88q57 85 121.5 173.5t128.5 150.5q68 64 131 64q123 0 123 -56q0 -19 -13 -46q-107 -212 -212 -468q-91 -220 -91 -284q0 -18 9 -22 q60 0 527 663l7 -101l-99 -143q-41 -61 -84 -123.5t-89 -131.5q-91 -140 -150 -207q-56 -61 -111 -61h-10q-102 7 -142 83q-17 30 -17 73q0 67 39 166q28 68 55 138q86 219 157 373q-67 -63 -156 -190q-121 -172 -222 -342q-70 -120 -135 -209.5t-114 -89.5h-3 q-140 22 -140 153q0 61 33.5 185.5t154.5 409.5q23 53 46 102q-71 -56 -157 -169t-151 -215q-37 -59 -79 -129q-49 -84 -99 -162q-111 -172 -166 -172h-4q-141 20 -141 153z" />
<glyph unicode="n" horiz-adv-x="990" d="M-200 157q0 61 33.5 186t154.5 410q39 91 109 234l19 -1q134 -7 134 -78q0 -52 -70 -188q-73 -146 -153 -365q-62 -170 -62 -220q0 -16 6 -20q126 197 244 391q55 95 131 206q187 268 315 272q84 -1 126 -26q24 -15 24 -43q0 -18 -11 -42q-133 -267 -221 -465 q-98 -225 -98 -282q0 -17 8 -21q45 0 279 327l237 337l10 -100q-233 -341 -277 -407q-98 -152 -150 -209q-46 -53 -98 -53l-11 1q-101 7 -142 83q-16 30 -16 72q0 68 39 168q120 289 220 494q-9 13 -23 13q-39 0 -126 -112q-68 -88 -177 -260q-48 -72 -115 -194 q-60 -109 -111.5 -185.5t-85.5 -76.5q-142 22 -142 154z" />
<glyph unicode="o" horiz-adv-x="909" d="M-160 329q0 131 77 304q98 204 234 288q129 79 251 79q99 0 163 -36q57 -32 74 -76l1 -5q0 -28 -28 -28l-13 1q-38 38 -130 38q-90 0 -196.5 -68.5t-189.5 -235.5q-77 -170 -77 -305q0 -73 22 -128.5t53 -68.5q21 -8 44 -8q52 0 131.5 50.5t164.5 160.5q-37 64 -37 137 q0 9 2.5 56t27.5 114.5t46 87.5q30 28 78 28q30 0 60 -13q10 57 10 92v6q1 19 14.5 30t33.5 11q13 0 22 -8q4 -28 4 -58q0 -90 -39.5 -217.5t-99.5 -238.5q34 -41 72 -41q74 0 170 147q91 139 174 338l5 13v-112q-30 -94 -80 -197t-114.5 -182.5t-138.5 -102.5 q-17 -5 -35 -5q-56 0 -114 52q-98 -124 -209 -185q-86 -48 -159 -48q-23 0 -45 5q-101 22 -163 104q-66 85 -66 225zM530 484q32 73 49 138q-35 -57 -49 -138z" />
<glyph unicode="p" horiz-adv-x="940" d="M-620 -753q0 15 6.5 70.5t50.5 185t101 266.5q94 228 115 271q97 221 272 588l178 372q127 -2 156 -37q12 -14 12 -37q0 -34 -27 -89q77 101 165 143q37 18 76 18q18 0 36 -4q95 -22 155 -99q64 -83 64 -211q0 -119 -71 -274q-124 -264 -334 -360q-90 -41 -201 -41 q-89 0 -135 27q-55 32 -88 83q-12 17 -12 19q0 8 8 14q12 9 26 9q7 0 12 -4q39 -43 140 -43q91 0 202 64t202 227q74 145 85 252q4 33 4 61q0 66 -21 120q-27 71 -67 71q-124 0 -578 -715q-162 -329 -246.5 -608.5t-113.5 -442.5q-7 -5 -24 -5q-44 0 -113 32q-35 16 -35 77z " />
<glyph unicode="q" horiz-adv-x="977" d="M-180 312q3 155 90 318q194 370 440 370q71 0 133 -30q39 -19 66.5 -47t36.5 -45l59 121q127 -3 158 -38q12 -14 12 -36q0 -35 -29 -89q-170 -323 -333 -643q62 21 135 83q249 210 383 438l29 50l2 -96l-27 -50q-77 -139 -208 -272q-93 -94 -184 -164.5t-172 -86.5 q-106 -242 -170 -421q-111 -311 -137 -474q-10 -58 -11 -58.5l-5 -2.5t-19 -2q-40 0 -114 32q-33 16 -33 76q0 16 6.5 71t50.5 185q67 199 213 532q-56 -47 -119 -47q-20 0 -42 5q-211 55 -211 321zM-18 251q0 -55 17 -106q24 -69 62 -69q79 0 288 301q112 241 203 429 q-54 80 -152 80q-160 0 -326 -306q-74 -145 -87 -252q-5 -42 -5 -77z" />
<glyph unicode="r" horiz-adv-x="752" d="M20 945q0 11 2 23q32 130 120 248l30 40l66 -11q92 -20 92 -57q0 -14 -17 -33q-27 -31 -67 -93t-41.5 -92.5t-1.5 -32.5q0 -57 82 -78q105 -24 131 -63t26 -79q0 -71 -71 -224q-108 -239 -108 -324q0 -31 17 -39h2q53 0 267 323q88 131 218 339l15 -109 q-157 -253 -246 -387q-195 -296 -290 -296q-8 0 -15 2q-88 27 -110 71.5t-22 90.5q0 80 56 232q32 88 67 162q57 121 57 162q0 32 -35 51q-27 15 -65 30q-159 57 -159 144z" />
<glyph unicode="s" horiz-adv-x="622" d="M-325 202q0 15 11.5 51.5t69.5 66.5q52 27 107 27h11q-38 -26 -64 -81q-12 -28 -12 -54q0 -27 19 -64.5t132 -47.5h10q46 0 90 29q51 34 51 106q0 59 -55 141q-80 112 -80 235q0 102 62 213q47 84 128 154t173 72q69 -5 127 -38l10 23l32 -7q105 -23 105 -66 q0 -44 -69 -125q-41 -47 -70 -70t-69 -23q-21 0 -54 10l87 196q-181 -54 -260 -207q-31 -70 -31 -132q0 -96 77 -226q62 -112 62 -169q0 -32 -14 -63q-43 -85 -151 -124q-79 -29 -161 -29q-30 0 -101 8.5t-129 79.5q-44 64 -44 114z" />
<glyph unicode="t" horiz-adv-x="462" d="M-200 157q0 63 36.5 188t159.5 411q49 115 270 569l-47 -2q-27 0 -63 4.5t-57 36.5q-9 14 -9 38q0 28 14 71q51 -42 107 -42q41 0 110 11l116 249q18 3 39 3q16 0 45.5 -3t54.5 -21q16 -12 16 -33q0 -11 -5 -23.5t-70 -151.5q83 18 144 18q52 0 81 -26q20 -18 20 -57 q0 -25 -8 -58q-38 25 -107 25q-88 0 -184 -20q-82 -176 -176 -375q-104 -219 -147 -314t-116 -302q-58 -165 -58 -217q0 -17 7 -21q59 0 492 655l-6 -105l-40 -72q-111 -199 -238 -378q-154 -215 -235 -215q-7 0 -14 2q-132 35 -132 155z" />
<glyph unicode="u" horiz-adv-x="1033" d="M-240 162q0 65 38 164q118 289 302 660h13q87 0 122 -43q11 -13 11 -32q0 -16 -8 -35q-35 -78 -84 -182q-233 -485 -233 -566q0 -16 7 -21q12 -5 24 -5q122 0 526 628q110 171 174 256l27 1q63 0 98 -24q25 -17 25 -45q0 -18 -11 -42q-319 -646 -319 -748q0 -17 9 -21 q80 0 567 666l10 -78q-348 -462 -379 -507q-65 -95 -109.5 -140.5t-91.5 -45.5q-107 4 -150 84q-16 30 -16 73q0 67 39 167q38 91 84 179q31 60 57 117q-69 -109 -153 -225q-45 -63 -86 -123q-103 -152 -180 -219q-64 -55 -128 -55q-14 0 -27 2q-101 15 -142 88 q-16 29 -16 72z" />
<glyph unicode="v" horiz-adv-x="910" d="M-170 110q0 56 47 188q44 125 108 369q18 74 19 126q0 125 -72 171q10 12 48 20q16 3 34 3q23 0 59 -7.5t71 -45.5q30 -41 30 -121q0 -118 -48 -298q-35 -132 -101 -324l79 72q79 71 208 203q-35 62 -35 113q0 81 79 129q26 15 55 15q70 0 108 -49q398 389 450 389 q26 0 45 -34q-319 -273 -589 -574q26 -11 55 -11q44 0 111.5 34.5t145 105.5t129.5 131l52 59l7 -58l-35 -45q-98 -129 -223 -220q-104 -75 -190 -75q-50 0 -97 29l-93 -105q-143 -166 -233 -245q-62 -55 -110 -55q-23 0 -42 12q-72 41 -72 98zM410 566q37 38 78 78 q-21 -2 -39.5 -18t-28.5 -32.5t-10 -24.5v-3z" />
<glyph unicode="w" horiz-adv-x="1286" d="M-235 157q0 140 341 829l27 1q63 0 98 -24q25 -17 25 -45q0 -19 -11 -43q-320 -639 -320 -749q0 -16 9 -20q31 0 119 112q158 199 397 563q115 176 129 205l27 1q63 0 98 -24q25 -17 25 -45q0 -19 -11 -43q-130 -259 -220 -466q-99 -225 -99 -282q0 -17 8 -21 q36 0 135 130q162 210 386 564q87 187 92 187h4q63 0 101 -26q15 -10 15 -25q0 -8 -119 -261q-77 -167 -77 -206q0 -12 7 -12q35 0 187 152l155 161l3 -64q-93 -106 -155 -166q-78 -81 -119.5 -114t-74.5 -33q-51 0 -94 36q-34 28 -34 84l1 15q-266 -417 -325 -483 q-41 -44 -88 -44h-10q-102 7 -142 83q-16 30 -16 74q0 67 38 167q58 142 118 273q-112 -172 -232 -352q-97 -152 -142 -201q-40 -44 -87 -44q-111 5 -153 83q-16 30 -16 73zM-235 157q0 140 341 829l27 1q63 0 98 -24q25 -17 25 -45q0 -19 -11 -43q-320 -639 -320 -749 q0 -16 9 -20q31 0 119 112q158 199 397 563q115 176 129 205l27 1q63 0 98 -24q25 -17 25 -45q0 -19 -11 -43q-130 -259 -220 -466q-99 -225 -99 -282q0 -17 8 -21q36 0 135 130q162 210 386 564q87 187 92 187h4q63 0 101 -26q15 -10 15 -25q0 -8 -119 -261 q-77 -167 -77 -206q0 -12 7 -12q35 0 187 152l155 161l3 -64q-93 -106 -155 -166q-78 -81 -119.5 -114t-74.5 -33q-51 0 -94 36q-34 28 -34 84l1 15q-266 -417 -325 -483q-41 -44 -88 -44h-10q-102 7 -142 83q-16 30 -16 74q0 67 38 167q58 142 118 273q-112 -172 -232 -352 q-97 -152 -142 -201q-40 -44 -87 -44q-111 5 -153 83q-16 30 -16 73z" />
<glyph unicode="x" horiz-adv-x="626" d="M-310 106q0 27 19 54l19 31q125 208 291 406q-3 144 -27.5 227t-112.5 118q34 37 94 37q52 0 100 -32q34 -28 53 -92.5t31 -139.5q61 58 120 119q74 76 132 128q33 28 67 28q32 0 54 -15.5t25 -34.5q-157 -146 -291 -287q-46 -48 -88 -90q10 -135 10 -254q0 -93 -6 -176 q94 111 281 384l174 259l1 -65l-73 -133q-73 -133 -189 -308l-23 -38q-134 -232 -208 -232q-6 0 -13 2q-80 23 -97 78q-12 41 -12 128q2 110 2 210q-144 -215 -280 -415q-53 64 -53 103z" />
<glyph unicode="y" horiz-adv-x="772" d="M-620 -541q0 76 41 141q39 61 146 141.5t313 199.5q26 -16 26 -34q0 -37 -90 -85q-154 -83 -257.5 -177.5t-107.5 -179.5q2 -69 61 -100q46 -25 116 -25q19 0 41 2q116 11 216.5 180.5t223.5 488.5q84 208 177 409q-118 -158 -169 -238q-56 -85 -96 -128q-37 -38 -81 -38 q-108 4 -149 83q-16 30 -16 74q0 140 339 825q10 1 25 1q70 0 104 -28q20 -16 20 -41q0 -19 -11 -43q-129 -257 -220 -464q-98 -224 -98 -282q0 -16 8 -20q26 0 105 95.5t173.5 225t164.5 230t75 107.5q34 67 65 123q57 97 105 97q32 0 61 -24.5t61 -63.5l-27 -35 q-27 -35 -83 -133q-140 -246 -352 -769q-249 -611 -453 -726q-87 -48 -166 -48q-195 0 -265 149q-26 55 -26 110z" />
<glyph unicode="z" horiz-adv-x="795" d="M-295 109q0 12 6 18q819 654 831 723q-5 20 -73 20l-57 -1q-91 -2 -364 -45l-19 -3q-54 0 -54 83q0 26 7 57q362 52 493 52q68 0 125.5 -30t57.5 -123q-3 -44 -48 -94q-41 -47 -161 -158q-48 -46 -266 -219q-234 -184 -305 -252q124 13 273 13q121 0 195.5 5t92.5 27 q120 179 371 608l5 -82q-189 -346 -275 -533q-26 -70 -77.5 -112.5t-179.5 -42.5h-41q-187 0 -318 -10l-132 -10q-33 11 -55 38q-32 39 -32 71z" />
<glyph unicode="{" horiz-adv-x="1014" d="M0 196q0 68 36.5 185.5t154.5 340.5q57 112 57 185q0 5 -2 45.5t-47 150.5q100 19 173 90t112 162q119 297 225 433q101 130 197 130q31 0 48 -3q49 -11 76 -50t35 -92l-12 12q-39 39 -91 39q-24 0 -54 -14q-72 -32 -140 -182q-60 -143 -99 -241q-56 -145 -94.5 -215.5 t-94.5 -96.5q-40 -18 -107 -28l15 -31q16 -31 27 -81q4 -19 4 -40q0 -45 -24.5 -109t-101.5 -208q-46 -86 -109 -213q-53 -112 -53 -188q0 -63 34.5 -97.5t80.5 -40.5l16 -2l-12 -9q-33 -25 -81 -28q-26 0 -52 12q-117 55 -117 184z" />
<glyph unicode="|" horiz-adv-x="1408" d="M197 -172l748 2259q36 -5 50 -9q49 -15 70 -52q13 -23 13 -51q0 -45 -28 -107q-51 -118 -286 -850q-137 -421 -255 -774t-157 -408q-47 -50 -84 -55h-6q-41 0 -65 47z" />
<glyph unicode="}" horiz-adv-x="1065" d="M0 145l12 -11q39 -39 90 -39q25 0 55 13q72 32 140 182q60 143 99 241q56 145 94.5 215.5t94.5 96.5q39 18 107 28l-15 31q-16 31 -27 81q-4 19 -4 40q0 45 24.5 109t101.5 208q46 86 109 213q53 112 53 188q0 63 -34.5 97.5t-80.5 40.5l-16 2l12 9q33 25 81 28 q26 0 52 -12q117 -55 117 -184q0 -68 -36.5 -185.5t-154.5 -340.5q-57 -111 -57 -185q0 -5 2 -45.5t47 -150.5q-100 -19 -173 -90t-112 -162q-119 -297 -225 -433q-102 -130 -197 -130q-31 0 -48 4q-49 10 -76 49.5t-35 91.5z" />
<glyph unicode="~" horiz-adv-x="972" d="M100 693q0 57 125 113q85 39 155 39q27 0 51 -5q45 -11 100 -66.5t94 -63.5q15 -3 32 -3q26 0 70.5 9.5t144.5 61.5l-2 -19q-11 -70 -121 -121q-79 -38 -149 -38q-28 0 -54 6q-42 9 -97.5 63.5t-97.5 64.5q-14 3 -31 3q-26 0 -71 -9.5t-144 -61.5q-5 14 -5 27z" />
<glyph unicode="&#xa1;" horiz-adv-x="1003" d="M7 -223q0 29 26 74q50 84 276 616q131 305 245 561t151 296q32 35 84 39q39 0 64 -34l-720 -1637q-126 10 -126 85zM746 1473q0 29 22 73q59 125 131 125q34 0 74 -28l-89 -239q-20 -4 -44 -4q-65 0 -88 40q-6 16 -6 33z" />
<glyph unicode="&#xa2;" horiz-adv-x="1198" d="M52 667q0 31 8 153t110 364q61 139 172.5 259.5t246.5 194.5q98 53 194 67l94 284q33 -5 45 -8q45 -14 64 -48q12 -20 12 -46q0 -41 -26 -97q-12 -28 -35 -93q62 -19 116 -64q88 -79 89 -178q0 -99 -65.5 -187.5t-174.5 -137.5q-37 -14 -103 -14q-24 0 -54 2 q-178 -552 -266 -808q107 47 248 171q118 103 234 231q35 36 59 36t24 -31q0 -8 -4.5 -35t-63.5 -107q-322 -374 -544 -403q-68 -193 -95 -231q-43 -46 -76 -50h-6q-37 0 -59 42l87 263q-113 52 -172 176t-59 295zM200 668q0 -167 44 -268q34 -77 72 -103l412 1242 q-25 -10 -54 -24q-109 -52 -210.5 -160t-172.5 -280q-91 -232 -91 -407zM767 1188q110 66 195 152q91 93 91 153q0 32 -30 52q-47 28 -122 28h-7z" />
<glyph unicode="&#xa3;" horiz-adv-x="1364" d="M100 45q0 27 10 55q27 73 67.5 133t86.5 117q62 75 118 166t85 222q7 31 10 60l-365 3q-4 23 -4 41q0 17 6.5 34t22.5 28.5t46 11.5q41 -1 296 -1q-9 93 -30 176q-31 121 -31 211q0 55 11 117q16 79 82.5 146.5t168.5 104.5q75 26 160 26q31 0 63 -3q213 -30 326 -106 q135 -92 135 -202q0 -67 -56 -123q-44 168 -137 236q-114 83 -316 83q-90 0 -174 -35.5t-113 -156.5q-6 -33 -6 -68q0 -61 19 -165q23 -106 27 -242q327 -2 429 -17q43 -8 50 -70q0 -13 1 -25l-1 -10l-485 4q-21 -173 -100 -317q-57 -105 -118 -195q-57 -84 -98 -161 q608 0 743 -18q31 -5 44 -41q8 -21 8 -47l-1 -17l-976 9q-4 18 -4 36z" />
<glyph unicode="&#xa4;" horiz-adv-x="1014" d="M122 413l118 117q-60 86 -60 187t60 186l-118 118l80 81l118 -118q44 30 99 46q44 14 89 14q98 0 185 -60l118 118l80 -81l-117 -117q60 -89 60 -187t-60 -187l117 -117l-80 -81l-118 118q-84 -60 -186 -60q-103 0 -187 60l-118 -118zM284 716q0 -28 9 -56 q16 -59 57 -100q67 -65 157 -65t157 65q40 41 57 99q9 29 9 58t-9 58q-35 121 -157 156q-29 8 -58 8t-58 -9q-119 -35 -154 -154q-10 -30 -10 -60z" />
<glyph unicode="&#xa5;" horiz-adv-x="1428" d="M0 1303q0 102 44 189t123.5 145.5t176.5 59.5q95 0 180 -66q89 -84 105 -270q9 -99 9 -221q0 -107 -7 -232l182 200q193 216 342.5 363.5t238.5 163.5q19 3 38 3q43 0 97 -23.5t80 -74.5q-60 0 -159 -64q-182 -119 -508 -427q152 -3 223 -12q53 -7 62 -70l1 -35l-406 3 q-72 -68 -141 -136q357 -2 481 -16q55 -7 63 -71l1 -34l-626 4q-106 -249 -200 -530q-23 -75 -23 -109q0 -32 7 -38l5 -5l-18 2q-52 3 -94 20.5t-42 48.5q0 25 125 342q52 133 102 270l-456 3q-4 21 -4 33q0 82 93 82q266 0 402 -1l6 138l-468 3q-4 21 -4 33q0 82 92 82 q50 -1 383 -1q0 218 -54 387q-26 74 -81 75q-55 0 -117 -53t-112 -142t-68 -194q-70 78 -74 175z" />
<glyph unicode="&#xa6;" horiz-adv-x="808" d="M100 141q0 11 233 584q95 -58 129 -89q21 -19 21 -46q0 -16 -7 -35l-225 -556q-151 78 -151 142zM499 1067q0 11 233 584q95 -59 129 -90q22 -18 22 -46q0 -16 -8 -34l-225 -556q-151 78 -151 142z" />
<glyph unicode="&#xa7;" horiz-adv-x="802" d="M-282 -389q0 15 11.5 51.5t69.5 66.5q52 27 118 27q-38 -26 -64 -81q-12 -28 -12 -54q0 -27 19 -64.5t132 -47.5q56 0 100 29q51 34 51 106q0 59 -55 141q-80 112 -80 235q0 102 62 213q47 84 128 154t173 72l10 -1q-13 47 -13 96q0 102 62 213q47 84 128 154t173 72 q69 -5 127 -38l10 23l32 -7q105 -23 105 -66q0 -44 -69 -125q-41 -47 -70 -70t-69 -23q-14 0 -54 10l87 196q-181 -54 -260 -207q-31 -70 -31 -132q0 -96 77 -226q62 -112 62 -169q0 -32 -14 -63q-43 -85 -151 -124q-79 -29 -161 -29q-116 0 -169 33q13 -81 73 -182 q62 -112 62 -169q0 -32 -14 -63q-43 -85 -151 -124q-79 -29 -161 -29q-30 0 -101 8.5t-129 79.5q-44 64 -44 114zM203 136q4 -21 17 -45q19 -38 132 -48h10q46 0 90 29q51 34 51 106q0 59 -55 141l-18 26q-150 -57 -220 -193z" />
<glyph unicode="&#xa8;" horiz-adv-x="1201" d="M200 1221q0 18 19 36l98 99q18 17 35 17q15 0 37 -19l95 -101q14 -19 14 -34q0 -18 -17 -38l-95 -103q-23 -23 -34 -23q-20 0 -35 16l-105 119q-12 16 -12 31zM703 1221q0 18 20 36l97 99q18 17 35 17q15 0 37 -18l95 -102q14 -19 14 -34q0 -18 -17 -36l-95 -105 q-23 -23 -34 -23q-19 0 -35 16l-104 120q-13 15 -13 30z" />
<glyph unicode="&#xa9;" horiz-adv-x="1693" d="M100 627q0 163 61 347q128 348 401 551q220 164 468 172q56 0 111 -10q146 -28 248 -118t154 -223q50 -129 50 -276q0 -163 -61 -347q-128 -348 -400 -551q-134 -99 -283 -144q-95 -28 -189 -28q-211 0 -356 128q-102 90 -154 223q-50 129 -50 276zM239 653 q0 -136 42 -245q90 -226 316 -273q40 -6 81 -6q188 0 376 138q112 83 202.5 205.5t144.5 276.5t54 295q0 135 -43 244q-90 227 -316 274q-41 7 -84 7q-190 -4 -373 -139q-112 -83 -202.5 -206t-144.5 -274q-53 -157 -53 -297zM529 706q0 137 70 306q56 126 171 217.5 t234 92.5q64 -1 117 -45q53 -47 53 -105q0 -59 -39 -111q-65 -90 -169 -90q-28 0 -84 7q66 27 130 76.5t95 98.5q15 23 15 40q0 19 -18 32q-29 16 -71 16q-25 0 -80 -10t-140 -79.5t-143 -204.5q-54 -138 -54 -244q0 -97 26.5 -156t56.5 -68q9 -2 19 -2q57 0 150.5 69.5 t198.5 185.5q22 21 35 21q15 0 15 -19q0 -26 -41 -83q-205 -239 -342 -239q-22 0 -42 5q-131 44 -157 210q-6 38 -6 79z" />
<glyph unicode="&#xab;" horiz-adv-x="944" d="M141 529q26 12 171 102q170 111 212 127q0 -25 -23 -80q-11 -24 -21 -34l-159 -117l139 -136q14 -13 18 -72l2 -61l-154 127q-153 124 -185 144zM432 534q26 12 171 102q170 111 212 127q0 -25 -23 -80q-11 -24 -21 -34l-159 -117l139 -136q14 -13 18 -72l2 -61l-154 127 q-153 124 -185 144z" />
<glyph unicode="&#xac;" horiz-adv-x="1014" d="M87 667v100h840v-491l-1 -1h-98v392h-741z" />
<glyph unicode="&#xad;" horiz-adv-x="670" d="M84 410q13 78 24 108.5t49 30.5h424q-12 -139 -67 -140z" />
<glyph unicode="&#xae;" horiz-adv-x="1693" d="M100 627q0 163 61 347q128 348 401 551q220 164 468 172q56 0 111 -10q146 -28 248 -118t154 -223q50 -129 50 -276q0 -163 -61 -347q-128 -348 -400 -551q-134 -100 -283 -144q-95 -28 -189 -28q-211 0 -356 128q-102 90 -154 223q-50 129 -50 276zM239 653 q0 -136 42 -245q90 -226 316 -273q40 -6 81 -6q188 0 376 138q112 83 202.5 205.5t144.5 276.5t54 295q0 135 -43 244q-90 227 -316 274q-41 7 -84 7q-190 -4 -373 -139q-112 -83 -202.5 -206t-144.5 -274q-53 -157 -53 -297zM509 889q0 10 3 23q26 112 104 210t180 158.5 t197 62.5q43 -1 83 -13q60 -18 95 -80q22 -40 22 -96q0 -30 -6 -65q-23 -88 -89.5 -168t-111.5 -119q-26 -24 -77.5 -57t-104 -58t-81.5 -25q23 -35 98 -97q115 -94 205 -128l32 -13q0 -10 -12.5 -19.5t-32.5 -9.5q-86 0 -235 117q-75 60 -97 108l-79 -212l-6 1 q-19 0 -31.5 8.5t-12.5 22.5q0 55 126 352q67 167 154 345q53 0 53 -37q0 -42 -42 -127q-15 -30 -113 -268q34 7 127.5 74t164.5 158q95 130 95 232q0 41 -20 70q-37 48 -100 48q-21 0 -81 -14t-165 -112q-85 -85 -137.5 -186t-55.5 -155l-6 3q-18 5 -30 24q-13 16 -13 42z " />
<glyph unicode="&#xaf;" horiz-adv-x="1108" d="M0 1264q0 25 35 76h1033q41 0 41 -23q0 -25 -50 -78h-1025q-34 0 -34 25z" />
<glyph unicode="&#xb0;" horiz-adv-x="674" d="M60 1164q0 116 81.5 197t197.5 81q115 0 196 -81.5t81 -196.5q0 -114 -82 -196t-197 -82q-117 0 -197 81t-80 197zM130 1163q0 -87 61 -147t148 -60t147 60t60 147t-60.5 148t-146.5 61t-147.5 -61t-61.5 -148z" />
<glyph unicode="&#xb1;" horiz-adv-x="1488" d="M150 0q24 78 44.5 108.5t90.5 30.5h784q-22 -139 -124 -140zM247 667q0 34 159 120h350l156 369l2 1q96 72 130 72q20 0 20 -24q0 -17 -11 -48l-157 -370h349l1 -1l28 1q64 0 64 -22q0 -33 -151 -118h-350l-157 -370q-104 -80 -139 -80q-18 0 -18 21q0 19 16 57l158 372 q-350 0 -385 -1q-65 0 -65 21z" />
<glyph unicode="&#xb4;" horiz-adv-x="607" d="M150 1085l180 279l22 1q79 0 104 -33q1 -4 1 -10q0 -45 -93 -166q-39 -50 -58 -65q-39 -30 -85 -30q-33 0 -58 16z" />
<glyph unicode="&#xb7;" horiz-adv-x="508" d="M129 709q0 15 16 31l82 84q15 14 29 14q13 0 31 -16l80 -86q12 -16 12 -29q0 -15 -14 -31l-80 -88q-20 -20 -29 -20q-16 0 -29 14l-88 101q-10 13 -10 26z" />
<glyph unicode="&#xb8;" horiz-adv-x="1024" d="M346 -344q0 23 14 54q85 -52 152 -52q66 0 94.5 21.5t28.5 66.5q0 80 -151 80l-26 -1q-62 0 -71 46q0 38 111 129h63q-51 -76 -51 -97q0 -8 8 -8q35 5 68 6q86 0 134 -40.5t48 -113.5q0 -76 -58.5 -120.5t-160.5 -44.5q-109 0 -174 25q-29 17 -29 49z" />
<glyph unicode="&#xbb;" horiz-adv-x="944" d="M141 258q4 35 24 80q10 24 21 34l159 117l-140 136q-14 13 -17 72l-2 61q301 -248 338 -271q-25 -12 -171 -102q-170 -111 -212 -127zM423 258q4 35 24 80q10 24 21 34l159 117l-140 136q-14 13 -17 72l-2 61q301 -248 338 -271q-25 -12 -171 -102q-170 -111 -212 -127z " />
<glyph unicode="&#xbf;" horiz-adv-x="1665" d="M101 61q0 117 61.5 207t165 152.5t228.5 98.5q98 28 202 47q131 23 239.5 59.5t159.5 113.5q62 107 119.5 241t93 232.5t35.5 106.5q32 -13 59 -53q23 -33 23 -72q-5 -83 -85 -293q-63 -165 -113 -236q-91 -116 -206.5 -161.5t-275.5 -75.5q-90 -19 -199 -46 q-75 -18 -163 -58t-158 -99q-95 -80 -95 -177q0 -46 29.5 -88.5t92.5 -70.5q80 -34 187 -34q96 0 212.5 25.5t225 88.5t164.5 157q39 -52 39 -105q0 -30 -22.5 -86t-126.5 -123.5t-255 -99.5q-93 -20 -195 -20q-65 0 -134 8q-144 18 -224 108q-84 96 -84 253zM1406 1429 q0 29 22 73q59 125 131 125q34 0 64 -22l10 -6l-89 -239q-20 -4 -44 -4q-65 0 -88 40q-6 16 -6 33z" />
<glyph unicode="&#xc0;" d="M0 1515q101 155 369 155q163 0 388.5 -73.5t476.5 -269.5q161 -129 295 -292q421 621 608 871q175 233 192 250q1 2 13 3q12 0 30.5 -4.5t38.5 -19.5q40 -30 40 -68q0 -46 -37 -170t-104 -323q-168 -497 -220 -748q-43 -231 -43 -426q0 -163 19.5 -300t49 -238t52.5 -154 l23 -53q-55 -20 -98 -20q-14 0 -38.5 3t-55.5 22.5t-52 60t-47.5 171.5t-41.5 333q-72 237 -347 552q-592 -891 -783 -1070q-101 -88 -244 -88q-115 0 -214.5 73t-118.5 243l-1 30q0 109 56 190t149 121q79 34 157 34q15 0 69 -4t113 -62q-50 -6 -112 -47.5t-107.5 -105.5 t-45.5 -135q0 -70 71 -133q32 -27 69 -27q47 0 125 61t229.5 273.5t375.5 553.5l123 184q-153 159 -370 337q-159 122 -339.5 187.5t-342 91.5t-265.5 29zM1606 920q163 -238 246 -401q20 352 211 906q64 186 159 444q-329 -514 -616 -949zM2236 2454q0 6 1 10q25 33 104 33 l22 -1l180 -279q-38 -24 -71 -24q-46 0 -85 30q-19 15 -58 65q-93 121 -93 166z" />
<glyph unicode="&#xc1;" d="M0 1515q101 155 369 155q163 0 388.5 -73.5t476.5 -269.5q161 -129 295 -292q421 621 608 871q175 233 192 250q1 2 13 3q12 0 30.5 -4.5t38.5 -19.5q40 -30 40 -68q0 -46 -37 -170t-104 -323q-168 -497 -220 -748q-43 -231 -43 -426q0 -163 19.5 -300t49 -238t52.5 -154 l23 -53q-55 -20 -98 -20q-14 0 -38.5 3t-55.5 22.5t-52 60t-47.5 171.5t-41.5 333q-72 237 -347 552q-592 -891 -783 -1070q-101 -88 -244 -88q-115 0 -214.5 73t-118.5 243l-1 30q0 109 56 190t149 121q79 34 157 34q15 0 69 -4t113 -62q-50 -6 -112 -47.5t-107.5 -105.5 t-45.5 -135q0 -70 71 -133q32 -27 69 -27q47 0 125 61t229.5 273.5t375.5 553.5l123 184q-153 159 -370 337q-159 122 -339.5 187.5t-342 91.5t-265.5 29zM1606 920q163 -238 246 -401q20 352 211 906q64 186 159 444q-329 -514 -616 -949zM2352 2203l180 279l21 1 q80 0 104 -33q2 -4 2 -10q0 -45 -94 -166q-39 -50 -57 -65q-39 -30 -86 -30q-33 0 -58 16z" />
<glyph unicode="&#xc2;" d="M0 1515q101 155 369 155q163 0 388.5 -73.5t476.5 -269.5q161 -129 295 -292q421 621 608 871q175 233 192 250q1 2 13 3q12 0 30.5 -4.5t38.5 -19.5q40 -30 40 -68q0 -46 -37 -170t-104 -323q-168 -497 -220 -748q-43 -231 -43 -426q0 -163 19.5 -300t49 -238t52.5 -154 l23 -53q-55 -20 -98 -20q-14 0 -38.5 3t-55.5 22.5t-52 60t-47.5 171.5t-41.5 333q-72 237 -347 552q-592 -891 -783 -1070q-101 -88 -244 -88q-115 0 -214.5 73t-118.5 243l-1 30q0 109 56 190t149 121q79 34 157 34q15 0 69 -4t113 -62q-50 -6 -112 -47.5t-107.5 -105.5 t-45.5 -135q0 -70 71 -133q32 -27 69 -27q47 0 125 61t229.5 273.5t375.5 553.5l123 184q-153 159 -370 337q-159 122 -339.5 187.5t-342 91.5t-265.5 29zM1606 920q163 -238 246 -401q20 352 211 906q64 186 159 444q-329 -514 -616 -949zM2156 2133q24 38 164 185 q116 127 132 149q15 -40 204 -382l-59 13q-58 14 -69 30l-107 163l-145 -135q-11 -9 -37 -15q-40 -9 -75 -9z" />
<glyph unicode="&#xc3;" d="M0 1515q101 155 369 155q163 0 388.5 -73.5t476.5 -269.5q161 -129 295 -292q421 621 608 871q175 233 192 250q1 2 13 3q12 0 30.5 -4.5t38.5 -19.5q40 -30 40 -68q0 -46 -37 -170t-104 -323q-168 -497 -220 -748q-43 -231 -43 -426q0 -163 19.5 -300t49 -238t52.5 -154 l23 -53q-55 -20 -98 -20q-14 0 -38.5 3t-55.5 22.5t-52 60t-47.5 171.5t-41.5 333q-72 237 -347 552q-592 -891 -783 -1070q-101 -88 -244 -88q-115 0 -214.5 73t-118.5 243l-1 30q0 109 56 190t149 121q79 34 157 34q15 0 69 -4t113 -62q-50 -6 -112 -47.5t-107.5 -105.5 t-45.5 -135q0 -70 71 -133q32 -27 69 -27q47 0 125 61t229.5 273.5t375.5 553.5l123 184q-153 159 -370 337q-159 122 -339.5 187.5t-342 91.5t-265.5 29zM1606 920q163 -238 246 -401q20 352 211 906q64 186 159 444q-329 -514 -616 -949zM2138 2234q62 179 193 179 q59 0 143 -44q78 -44 128 -44q25 0 46.5 14.5t42.5 57.5l53 -9q-64 -174 -192 -174q-65 0 -144 44.5t-128 44.5q-27 0 -48 -15t-41 -63z" />
<glyph unicode="&#xc4;" d="M0 1515q101 155 369 155q163 0 388.5 -73.5t476.5 -269.5q161 -129 295 -292q421 621 608 871q175 233 192 250q1 2 13 3q12 0 30.5 -4.5t38.5 -19.5q40 -30 40 -68q0 -46 -37 -170t-104 -323q-168 -497 -220 -748q-43 -231 -43 -426q0 -163 19.5 -300t49 -238t52.5 -154 l23 -53q-55 -20 -98 -20q-14 0 -38.5 3t-55.5 22.5t-52 60t-47.5 171.5t-41.5 333q-72 237 -347 552q-592 -891 -783 -1070q-101 -88 -244 -88q-115 0 -214.5 73t-118.5 243l-1 30q0 109 56 190t149 121q79 34 157 34q15 0 69 -4t113 -62q-50 -6 -112 -47.5t-107.5 -105.5 t-45.5 -135q0 -70 71 -133q32 -27 69 -27q47 0 125 61t229.5 273.5t375.5 553.5l123 184q-153 159 -370 337q-159 122 -339.5 187.5t-342 91.5t-265.5 29zM1606 920q163 -238 246 -401q20 352 211 906q64 186 159 444q-329 -514 -616 -949zM2208 2359q0 13 14 26l70 73 q12 12 27 12q7 0 13.5 -3t84.5 -86q9 -7 9 -24q-1 -10 -3 -15.5t-80 -89.5q-18 -16 -24 -16q-10 0 -16.5 2.5t-48.5 51.5t-44 54.5t-2 14.5zM2483 2321q0 13 14 26l70 73q12 12 27 12q7 0 13.5 -3t84.5 -86q9 -7 9 -24q-1 -10 -3 -15.5t-80 -89.5q-18 -16 -24 -16 q-10 0 -16.5 2.5t-48.5 51.5t-44 54.5t-2 14.5z" />
<glyph unicode="&#xc5;" d="M0 1515q101 155 369 155q163 0 388.5 -73.5t476.5 -269.5q161 -129 295 -292q421 621 608 871q97 130 146 193q-65 66 -65 163q0 98 66.5 164.5t163.5 66.5q99 0 166 -67t67 -164q0 -98 -67 -165t-166 -67q-17 -97 -138 -456q-168 -497 -220 -748q-43 -231 -43 -426 q0 -163 19.5 -300t49 -238t52.5 -154l23 -53q-55 -20 -98 -20q-14 0 -38.5 3t-55.5 22.5t-52 60t-47.5 171.5t-41.5 333q-72 237 -347 552q-592 -891 -783 -1070q-101 -88 -244 -88q-115 0 -214.5 73t-118.5 243l-1 30q0 109 56 190t149 121q79 34 157 34q15 0 69 -4 t113 -62q-50 -6 -112 -47.5t-107.5 -105.5t-45.5 -135q0 -70 71 -133q32 -27 69 -27q47 0 125 61t229.5 273.5t375.5 553.5l123 184q-153 159 -370 337q-159 122 -339.5 187.5t-342 91.5t-265.5 29zM1606 920q163 -238 246 -401q20 352 211 906q64 186 159 444 q-329 -514 -616 -949zM2317 2262q0 -69 56 -108q17 -4 34 -16q19 -6 41 -6q54 0 92 37.5t38 92.5q0 52 -38.5 90.5t-91.5 38.5q-54 0 -92.5 -38.5t-38.5 -90.5z" />
<glyph unicode="&#xc6;" horiz-adv-x="3298" d="M0 1515q101 155 369 155q163 0 388.5 -73.5t476.5 -269.5q161 -129 295 -292q421 621 608 870.5t191 249.5q19 -2 45 -13t48 -25t26 -26q2 -7 2 -18q0 -62 -53 -234q180 136 408 229q233 90 425 90q234 0 322 -113q47 -62 47 -135q0 -27 -8.5 -69.5t-41 -84.5t-87.5 -47 l10 24q14 35 14 75q0 29 -12 66q-34 103 -187 103q-46 0 -159.5 -16t-318 -103.5t-373.5 -230.5t-232 -334q-14 -48 -14 -98q0 -35 11.5 -95t57 -120.5t111.5 -68.5q46 0 207.5 31t322 67t202.5 52q17 -28 17 -73q0 -2 -1 -27.5t-19 -69t-50 -59.5q-671 -109 -1114 -294 q-508 -213 -516 -488q3 -91 82.5 -154t202.5 -98q162 -46 331 -46q86 0 159 12q161 29 359 114.5t378.5 204t290.5 246.5l37 -96q-122 -135 -196 -197q-193 -154 -431 -254t-480 -139q-20 -5 -46 -7q-119 -16 -229 -16q-83 0 -212.5 15t-254.5 92q-198 120 -198 384 q0 122 83 257.5t333 267.5q-51 67 -116 141q-592 -891 -783 -1070q-101 -88 -244 -88q-115 0 -214.5 73t-118.5 243l-1 30q0 109 56 190t149 121q79 34 157 34q15 0 69 -4t113 -62q-50 -6 -112 -47.5t-107.5 -105.5t-45.5 -135q0 -70 71 -133q32 -27 69 -27q47 0 125 61 t229.5 273.5t375.5 553.5l123 184q-153 159 -370 337q-159 122 -339.5 187.5t-342 91.5t-265.5 29zM1606 920q82 -117 145 -222q61 28 129 56q44 221 120 466l40 138q60 199 137 393l45 118q-329 -514 -616 -949zM2092 833l106 38l-25 17q-25 16 -57 52q-14 -56 -24 -107z " />
<glyph unicode="&#xc7;" horiz-adv-x="1567" d="M0 62l1 36q23 609 502 1286q360 516 700 691q161 83 298 83q169 0 282 -106q72 -73 77.5 -126.5t5.5 -75.5q0 -65 -20 -130q-63 -212 -238 -403q-260 -278 -440 -278q-99 0 -157 119h19q183 0 361 176q83 83 148 161q13 17 29 36q54 66 111.5 153.5t65.5 137t8 62.5 q0 70 -64 124q-50 35 -107 35q-27 0 -55 -8q-135 -38 -306 -183q-137 -102 -310 -303q-154 -177 -296 -420q-416 -742 -416 -1112q0 -91 28 -163q43 -117 190 -117q29 0 62 5q221 34 585 443q274 312 512 594q47 60 91 110l38 -97q-372 -472 -635 -779 q-182 -208 -327.5 -294t-225.5 -94q45 -9 75 -35q48 -40 48 -113q0 -76 -58.5 -120.5t-160.5 -44.5q-109 0 -174 25q-29 17 -29 49q0 23 14 54q85 -52 152 -52q66 0 94.5 21.5t28.5 66.5q0 80 -151 80l-26 -1q-62 0 -71 46q0 16 21 43q-145 47 -208 145q-72 110 -72 273z " />
<glyph unicode="&#xc8;" horiz-adv-x="2085" d="M0 86q0 22 10.5 109.5t115.5 227.5t261.5 256t326.5 197t317 116q-115 63 -192 157q-99 122 -99 269q0 94 46 199q83 176 255 307.5t385 195.5q146 43 289 43q299 -5 472 -182q105 -139 105 -364v-21q0 -151 -82 -277q-49 -71 -163 -71q-41 0 -90 9q179 309 179 501 q0 85 -51 140q-114 109 -313 109q-131 0 -288 -50t-302 -157t-221 -250q-25 -54 -25 -109q0 -75 62 -181t247 -175q106 -38 214 -59q90 -17 318 -49l1 -28q0 -30 -8 -61.5t-49 -66.5q-11 -9 -45 -9q-46 0 -141 11q-158 17 -252 17q-70 0 -134 -8q-120 -14 -272.5 -72 t-301 -149.5t-256 -207t-138.5 -245.5q-9 -35 -9 -71q0 -96 62 -195q108 -161 376 -163q179 0 390 89.5t399.5 223.5t300.5 266q49 -37 49 -79q0 -68 -199 -216q-131 -97 -305 -190t-354 -151q-164 -53 -300 -53l-28 1q-335 14 -472 204q-91 131 -91 262zM1640 2434 q0 6 1 10q25 33 104 33l22 -1l180 -279q-38 -24 -71 -24q-46 0 -85 30q-19 15 -58 65q-93 121 -93 166z" />
<glyph unicode="&#xc9;" horiz-adv-x="2085" d="M0 86q0 22 10.5 109.5t115.5 227.5t261.5 256t326.5 197t317 116q-115 63 -192 157q-99 122 -99 269q0 94 46 199q83 176 255 307.5t385 195.5q146 43 289 43q299 -5 472 -182q105 -139 105 -364v-21q0 -151 -82 -277q-49 -71 -163 -71q-41 0 -90 9q179 309 179 501 q0 85 -51 140q-114 109 -313 109q-131 0 -288 -50t-302 -157t-221 -250q-25 -54 -25 -109q0 -75 62 -181t247 -175q106 -38 214 -59q90 -17 318 -49l1 -28q0 -30 -8 -61.5t-49 -66.5q-11 -9 -45 -9q-46 0 -141 11q-158 17 -252 17q-70 0 -134 -8q-120 -14 -272.5 -72 t-301 -149.5t-256 -207t-138.5 -245.5q-9 -35 -9 -71q0 -96 62 -195q108 -161 376 -163q179 0 390 89.5t399.5 223.5t300.5 266q49 -37 49 -79q0 -68 -199 -216q-131 -97 -305 -190t-354 -151q-164 -53 -300 -53l-28 1q-335 14 -472 204q-91 131 -91 262zM1656 2203l180 279 l21 1q80 0 104 -33q2 -4 2 -10q0 -45 -94 -166q-39 -50 -57 -65q-39 -30 -86 -30q-33 0 -58 16z" />
<glyph unicode="&#xca;" horiz-adv-x="2085" d="M0 86q0 22 10.5 109.5t115.5 227.5t261.5 256t326.5 197t317 116q-115 63 -192 157q-99 122 -99 269q0 94 46 199q83 176 255 307.5t385 195.5q146 43 289 43q299 -5 472 -182q105 -139 105 -364v-21q0 -151 -82 -277q-49 -71 -163 -71q-41 0 -90 9q179 309 179 501 q0 85 -51 140q-114 109 -313 109q-131 0 -288 -50t-302 -157t-221 -250q-25 -54 -25 -109q0 -75 62 -181t247 -175q106 -38 214 -59q90 -17 318 -49l1 -28q0 -30 -8 -61.5t-49 -66.5q-11 -9 -45 -9q-46 0 -141 11q-158 17 -252 17q-70 0 -134 -8q-120 -14 -272.5 -72 t-301 -149.5t-256 -207t-138.5 -245.5q-9 -35 -9 -71q0 -96 62 -195q108 -161 376 -163q179 0 390 89.5t399.5 223.5t300.5 266q49 -37 49 -79q0 -68 -199 -216q-131 -97 -305 -190t-354 -151q-164 -53 -300 -53l-28 1q-335 14 -472 204q-91 131 -91 262zM1560 2170 q24 35 164 173q116 119 132 140q15 -38 204 -358l-59 12q-58 13 -69 29l-107 152l-145 -127q-11 -8 -37 -13q-40 -9 -75 -9z" />
<glyph unicode="&#xcb;" horiz-adv-x="2085" d="M0 86q0 22 10.5 109.5t115.5 227.5t261.5 256t326.5 197t317 116q-115 63 -192 157q-99 122 -99 269q0 94 46 199q83 176 255 307.5t385 195.5q146 43 289 43q299 -5 472 -182q105 -139 105 -364v-21q0 -151 -82 -277q-49 -71 -163 -71q-41 0 -90 9q179 309 179 501 q0 85 -51 140q-114 109 -313 109q-131 0 -288 -50t-302 -157t-221 -250q-25 -54 -25 -109q0 -75 62 -181t247 -175q106 -38 214 -59q90 -17 318 -49l1 -28q0 -30 -8 -61.5t-49 -66.5q-11 -9 -45 -9q-46 0 -141 11q-158 17 -252 17q-70 0 -134 -8q-120 -14 -272.5 -72 t-301 -149.5t-256 -207t-138.5 -245.5q-9 -35 -9 -71q0 -96 62 -195q108 -161 376 -163q179 0 390 89.5t399.5 223.5t300.5 266q49 -37 49 -79q0 -68 -199 -216q-131 -97 -305 -190t-354 -151q-164 -53 -300 -53l-28 1q-335 14 -472 204q-91 131 -91 262zM1572 2329 q0 13 14 26l70 73q12 12 27 12q7 0 13.5 -3t84.5 -86q9 -7 9 -24q-1 -10 -3 -15.5t-80 -89.5q-18 -16 -24 -16q-10 0 -16.5 2.5t-48.5 51.5t-44 54.5t-2 14.5zM1847 2291q0 13 14 26l70 73q12 12 27 12q7 0 13.5 -3t84.5 -86q9 -7 9 -24q-1 -10 -3 -15.5t-80 -89.5 q-18 -16 -24 -16q-10 0 -16.5 2.5t-48.5 51.5t-44 54.5t-2 14.5z" />
<glyph unicode="&#xcc;" horiz-adv-x="1077" d="M0 1138q0 12 3 40t28 87q84 201 439 525q384 342 600 342q106 -3 169 -56t104 -126q24 -41 24 -98q0 -43 -23 -129q-40 -148 -311 -624q-129 -225 -273 -498q-242 -479 -338 -846l-34 -130q-6 -5 -19 -6q-45 0 -145 110q-13 18 -13 55q0 133 195 563.5t670 1189.5 q146 234 146 344q0 95 -92 95q-77 0 -208 -67t-302 -210q-162 -138 -270 -261t-171 -218t-89 -150l-26 -54q-64 38 -64 122zM1060 2437q0 6 1 10q25 33 104 33l22 -1l180 -279q-38 -24 -71 -24q-46 0 -85 30q-19 15 -58 65q-93 121 -93 166z" />
<glyph unicode="&#xcd;" horiz-adv-x="1077" d="M0 1138q0 12 3 40t28 87q84 201 439 525q384 342 600 342q106 -3 169 -56t104 -126q24 -41 24 -98q0 -43 -23 -129q-40 -148 -311 -624q-129 -225 -273 -498q-242 -479 -338 -846l-34 -130q-6 -5 -19 -6q-45 0 -145 110q-13 18 -13 55q0 133 195 563.5t670 1189.5 q146 234 146 344q0 95 -92 95q-77 0 -208 -67t-302 -210q-162 -138 -270 -261t-171 -218t-89 -150l-26 -54q-64 38 -64 122zM1100 2193l180 279l21 1q80 0 104 -33q2 -4 2 -10q0 -45 -94 -166q-39 -50 -57 -65q-39 -30 -86 -30q-33 0 -58 16z" />
<glyph unicode="&#xce;" horiz-adv-x="1077" d="M0 1138q0 12 3 40t28 87q84 201 439 525q384 342 600 342q106 -3 169 -56t104 -126q24 -41 24 -98q0 -43 -23 -129q-40 -148 -311 -624q-129 -225 -273 -498q-242 -479 -338 -846l-34 -130q-6 -5 -19 -6q-45 0 -145 110q-13 18 -13 55q0 133 195 563.5t670 1189.5 q146 234 146 344q0 95 -92 95q-77 0 -208 -67t-302 -210q-162 -138 -270 -261t-171 -218t-89 -150l-26 -54q-64 38 -64 122zM871 2173q24 35 164 173q116 119 132 140q15 -38 204 -358l-59 12q-58 13 -69 29l-107 152l-145 -127q-11 -8 -37 -13q-40 -9 -75 -9z" />
<glyph unicode="&#xcf;" horiz-adv-x="1077" d="M0 1138q0 12 3 40t28 87q84 201 439 525q384 342 600 342q106 -3 169 -56t104 -126q24 -41 24 -98q0 -43 -23 -129q-40 -148 -311 -624q-129 -225 -273 -498q-242 -479 -338 -846l-34 -130q-6 -5 -19 -6q-45 0 -145 110q-13 18 -13 55q0 133 195 563.5t670 1189.5 q146 234 146 344q0 95 -92 95q-77 0 -208 -67t-302 -210q-162 -138 -270 -261t-171 -218t-89 -150l-26 -54q-64 38 -64 122zM870 2306q0 13 14 26l70 73q12 12 27 12q7 0 13.5 -3t84.5 -86q9 -7 9 -24q-1 -10 -3 -15.5t-80 -89.5q-18 -16 -24 -16q-10 0 -16.5 2.5 t-48.5 51.5t-44 54.5t-2 14.5zM1145 2268q0 13 14 26l70 73q12 12 27 12q7 0 13.5 -3t84.5 -86q9 -7 9 -24q-1 -10 -3 -15.5t-80 -89.5q-18 -16 -24 -16q-10 0 -16.5 2.5t-48.5 51.5t-44 54.5t-2 14.5z" />
<glyph unicode="&#xd0;" horiz-adv-x="2797" d="M0 496q0 181 138 459q108 219 292.5 447.5t436.5 414.5q334 238 596.5 303t483.5 65q86 0 171 -8q113 -8 241 -61t236.5 -152t155 -220t46.5 -238q0 -225 -135 -472q-165 -303 -465 -610q-123 -126 -212 -203q-84 -74 -224.5 -176.5t-299.5 -199.5t-283.5 -148.5 t-197.5 -51.5q-19 0 -36 3q-133 32 -163.5 75.5t-30.5 86.5q0 76 108 299q83 177 293 664l-582 1q30 95 56 132t115 37h484l238 558q27 -3 53 -14q91 -37 91 -131q0 -48 -28 -111q-39 -88 -126 -302h280q-28 -169 -157 -170h-192q-59 -145 -387 -960q91 20 321.5 160 t493 354.5t450.5 457.5q335 497 342 801q0 198 -124 328q-159 161 -468 182q-212 0 -460 -99q-290 -115 -599 -353q-359 -285 -583 -760q-98 -207 -144 -375t-46 -277l-22 7q-61 18 -109 83.5t-48 173.5z" />
<glyph unicode="&#xd1;" horiz-adv-x="1625" d="M0 -96q0 59 89.5 279t226.5 519t260 560q99 212 154 333q31 71 31 110q0 17 -6 28q-15 24 -46 24q-61 0 -152 -65q-64 -46 -106 -103q-52 -75 -86.5 -144t-68.5 -160l-22 18q-64 52 -85 136q-7 24 -7 52q0 30 11 80.5t69 132.5q101 136 227 194q99 45 193 45 q137 0 219 -76q47 -44 49 -127q0 -136 -114 -415q-117 -289 -361 -770q-95 -190 -162 -331t-78 -201l1698 2131q16 5 29 5q60 -2 141 -47q22 -13 22 -43q0 -33 -38 -110.5t-149 -251.5q-98 -155 -219 -363.5t-240 -470.5q-236 -533 -236 -897q0 -51 8 -120t30.5 -127 t41.5 -84l19 -26l-40 6q-116 18 -209 91q-126 98 -126 292q0 153 120 450q181 453 493 1019l107 194l-1527 -1927q-38 10 -65 26q-66 38 -94 125zM1071 2161q62 179 193 179q59 0 143 -44q78 -44 128 -44q25 0 46.5 14.5t42.5 57.5l53 -9q-64 -174 -192 -174 q-65 0 -144 44.5t-128 44.5q-27 0 -48 -15t-41 -63z" />
<glyph unicode="&#xd2;" horiz-adv-x="2127" d="M0 343q0 416 245 879q358 646 812 841q201 86 445 96q139 0 251 -29q358 -92 374 -499q0 -192 -83 -462q-108 -342 -261 -635t-325 -508t-321.5 -311t-262.5 -96q-30 0 -59 6q-169 39 -304.5 195.5t-161.5 326t-26 247.5q0 219 85 496q89 273 221 466t265 274t245 81 q157 0 172 -100q3 -26 3 -41q0 -46 -23 -113l-27 15q-55 29 -124 29q-27 0 -58 -5q-237 -39 -426 -467q-137 -327 -155 -502t-18 -245q0 -175 48 -298q66 -173 253 -203q131 0 308 142q164 140 339.5 407.5t318 573t193 503t50.5 295.5q0 83 -25 137q-81 143 -356 172 q-161 0 -352 -73q-242 -92 -469.5 -299.5t-377.5 -528.5q-105 -234 -161 -418.5t-77.5 -321.5t-21.5 -227t8 -134l7 -44q-103 4 -135.5 136t-32.5 242zM1565 2430q0 6 1 10q25 33 104 33l22 -1l180 -279q-38 -24 -71 -24q-46 0 -85 30q-19 15 -58 65q-93 121 -93 166z" />
<glyph unicode="&#xd3;" horiz-adv-x="2127" d="M0 343q0 416 245 879q358 646 812 841q201 86 445 96q139 0 251 -29q358 -92 374 -499q0 -192 -83 -462q-108 -342 -261 -635t-325 -508t-321.5 -311t-262.5 -96q-30 0 -59 6q-169 39 -304.5 195.5t-161.5 326t-26 247.5q0 219 85 496q89 273 221 466t265 274t245 81 q157 0 172 -100q3 -26 3 -41q0 -46 -23 -113l-27 15q-55 29 -124 29q-27 0 -58 -5q-237 -39 -426 -467q-137 -327 -155 -502t-18 -245q0 -175 48 -298q66 -173 253 -203q131 0 308 142q164 140 339.5 407.5t318 573t193 503t50.5 295.5q0 83 -25 137q-81 143 -356 172 q-161 0 -352 -73q-242 -92 -469.5 -299.5t-377.5 -528.5q-105 -234 -161 -418.5t-77.5 -321.5t-21.5 -227t8 -134l7 -44q-103 4 -135.5 136t-32.5 242zM1592 2211l180 279l21 1q80 0 104 -33q2 -4 2 -10q0 -45 -94 -166q-39 -50 -57 -65q-39 -30 -86 -30q-33 0 -58 16z" />
<glyph unicode="&#xd4;" horiz-adv-x="2127" d="M0 343q0 416 245 879q358 646 812 841q201 86 445 96q139 0 251 -29q358 -92 374 -499q0 -192 -83 -462q-108 -342 -261 -635t-325 -508t-321.5 -311t-262.5 -96q-30 0 -59 6q-169 39 -304.5 195.5t-161.5 326t-26 247.5q0 219 85 496q89 273 221 466t265 274t245 81 q157 0 172 -100q3 -26 3 -41q0 -46 -23 -113l-27 15q-55 29 -124 29q-27 0 -58 -5q-237 -39 -426 -467q-137 -327 -155 -502t-18 -245q0 -175 48 -298q66 -173 253 -203q131 0 308 142q164 140 339.5 407.5t318 573t193 503t50.5 295.5q0 83 -25 137q-81 143 -356 172 q-161 0 -352 -73q-242 -92 -469.5 -299.5t-377.5 -528.5q-105 -234 -161 -418.5t-77.5 -321.5t-21.5 -227t8 -134l7 -44q-103 4 -135.5 136t-32.5 242zM1360 2165q24 38 164 185q116 127 132 149q15 -40 204 -382l-59 13q-58 14 -69 30l-107 163l-145 -135q-11 -9 -37 -15 q-40 -9 -75 -9z" />
<glyph unicode="&#xd5;" horiz-adv-x="2127" d="M0 343q0 416 245 879q358 646 812 841q201 86 445 96q139 0 251 -29q358 -92 374 -499q0 -192 -83 -462q-108 -342 -261 -635t-325 -508t-321.5 -311t-262.5 -96q-30 0 -59 6q-169 39 -304.5 195.5t-161.5 326t-26 247.5q0 219 85 496q89 273 221 466t265 274t245 81 q157 0 172 -100q3 -26 3 -41q0 -46 -23 -113l-27 15q-55 29 -124 29q-27 0 -58 -5q-237 -39 -426 -467q-137 -327 -155 -502t-18 -245q0 -175 48 -298q66 -173 253 -203q131 0 308 142q164 140 339.5 407.5t318 573t193 503t50.5 295.5q0 83 -25 137q-81 143 -356 172 q-161 0 -352 -73q-242 -92 -469.5 -299.5t-377.5 -528.5q-105 -234 -161 -418.5t-77.5 -321.5t-21.5 -227t8 -134l7 -44q-103 4 -135.5 136t-32.5 242zM1340 2239q62 179 193 179q59 0 143 -44q78 -44 128 -44q25 0 46.5 14.5t42.5 57.5l53 -9q-64 -174 -192 -174 q-65 0 -144 44.5t-128 44.5q-27 0 -48 -15t-41 -63z" />
<glyph unicode="&#xd6;" horiz-adv-x="2127" d="M0 343q0 416 245 879q358 646 812 841q201 86 445 96q139 0 251 -29q358 -92 374 -499q0 -192 -83 -462q-108 -342 -261 -635t-325 -508t-321.5 -311t-262.5 -96q-30 0 -59 6q-169 39 -304.5 195.5t-161.5 326t-26 247.5q0 219 85 496q89 273 221 466t265 274t245 81 q157 0 172 -100q3 -26 3 -41q0 -46 -23 -113l-27 15q-55 29 -124 29q-27 0 -58 -5q-237 -39 -426 -467q-137 -327 -155 -502t-18 -245q0 -175 48 -298q66 -173 253 -203q131 0 308 142q164 140 339.5 407.5t318 573t193 503t50.5 295.5q0 83 -25 137q-81 143 -356 172 q-161 0 -352 -73q-242 -92 -469.5 -299.5t-377.5 -528.5q-105 -234 -161 -418.5t-77.5 -321.5t-21.5 -227t8 -134l7 -44q-103 4 -135.5 136t-32.5 242zM1424 2335q0 13 14 26l70 73q12 12 27 12q7 0 13.5 -3t84.5 -86q9 -7 9 -24q-1 -10 -3 -15.5t-80 -89.5q-18 -16 -24 -16 q-10 0 -16.5 2.5t-48.5 51.5t-44 54.5t-2 14.5zM1699 2297q0 13 14 26l70 73q12 12 27 12q7 0 13.5 -3t84.5 -86q9 -7 9 -24q-1 -10 -3 -15.5t-80 -89.5q-18 -16 -24 -16q-10 0 -16.5 2.5t-48.5 51.5t-44 54.5t-2 14.5z" />
<glyph unicode="&#xd7;" horiz-adv-x="1014" d="M161 470l247 247l-247 248l99 98l247 -247l248 247l98 -99l-247 -247l247 -247l-99 -99l-247 247l-247 -247z" />
<glyph unicode="&#xd8;" horiz-adv-x="2127" d="M0 333q0 416 245 879q358 646 812 841q201 86 445 96q83 0 156 -10l85 178q71 -15 113 -52.5t42 -92.5q0 -44 -23 -97q239 -123 252 -454q0 -192 -83 -462q-108 -342 -261 -635t-325 -508t-321.5 -311t-262.5 -96q-80 0 -174 48q-68 -127 -97 -160q-70 -56 -119 -56 q-55 0 -84 72l131 274q-155 173 -182 350q-26 169 -26 247q0 219 85 496q89 273 221 466t265 274.5t245 81.5q158 0 172 -101q3 -26 3 -41q0 -50 -23 -113q-79 44 -151 44q-96 0 -190 -61q-158 -102 -294 -411q-137 -327 -155 -502t-18 -245q0 -174 48 -298q19 -50 48 -87 l1012 2114q-152 -5 -331 -73q-242 -92 -469.5 -299.5t-377.5 -528.5q-105 -234 -161 -418.5t-77.5 -321.5t-21.5 -227t8 -134l7 -44q-103 4 -135.5 136.5t-32.5 241.5zM762 -224l22 -4q131 0 308 141q164 140 339.5 407.5t318 573t193 503t50.5 295.5q0 83 -25 137 q-47 82 -158 127q-117 -221 -478 -994q-417 -884 -570 -1186z" />
<glyph unicode="&#xd9;" horiz-adv-x="1761" d="M0 1659q0 18 8 89.5t94 177t214.5 169.5t270.5 64q152 0 287 -92q121 -83 121 -212q0 -102 -68.5 -271t-212.5 -464q-127 -260 -299 -637q-132 -299 -132 -449q0 -15 1 -29q16 -145 136 -145q130 2 311.5 123.5t367.5 329.5q42 49 75 95q62 188 131 341q35 81 67 163 q212 531 474 974l91 153q85 -13 122 -54q22 -25 22 -55q0 -18 -9 -39.5t-50 -91.5q-243 -401 -468 -934q-103 -252 -164 -476q-105 -387 -129 -670l-9 -100q-168 0 -168 251q0 125 29 278q-217 -238 -404 -368q-176 -123 -327 -123q-176 8 -305 186q-29 45 -29 117 q0 55 29 173t124.5 334t209.5 450q129 262 233 501.5t131 409.5l1 21q0 105 -122 105q-73 0 -185.5 -48.5t-229 -166.5t-167.5 -286q-72 101 -72 206zM1250 2341q0 6 1 10q25 33 104 33l22 -1l180 -279q-38 -24 -71 -24q-46 0 -85 30q-19 15 -58 65q-93 121 -93 166z" />
<glyph unicode="&#xda;" horiz-adv-x="1761" d="M0 1659q0 18 8 89.5t94 177t214.5 169.5t270.5 64q152 0 287 -92q121 -83 121 -212q0 -102 -68.5 -271t-212.5 -464q-127 -260 -299 -637q-132 -299 -132 -449q0 -15 1 -29q16 -145 136 -145q130 2 311.5 123.5t367.5 329.5q42 49 75 95q62 188 131 341q35 81 67 163 q212 531 474 974l91 153q85 -13 122 -54q22 -25 22 -55q0 -18 -9 -39.5t-50 -91.5q-243 -401 -468 -934q-103 -252 -164 -476q-105 -387 -129 -670l-9 -100q-168 0 -168 251q0 125 29 278q-217 -238 -404 -368q-176 -123 -327 -123q-176 8 -305 186q-29 45 -29 117 q0 55 29 173t124.5 334t209.5 450q129 262 233 501.5t131 409.5l1 21q0 105 -122 105q-73 0 -185.5 -48.5t-229 -166.5t-167.5 -286q-72 101 -72 206zM1301 2114l180 279l21 1q80 0 104 -33q2 -4 2 -10q0 -45 -94 -166q-39 -50 -57 -65q-39 -30 -86 -30q-33 0 -58 16z" />
<glyph unicode="&#xdb;" horiz-adv-x="1761" d="M0 1659q0 18 8 89.5t94 177t214.5 169.5t270.5 64q152 0 287 -92q121 -83 121 -212q0 -102 -68.5 -271t-212.5 -464q-127 -260 -299 -637q-132 -299 -132 -449q0 -15 1 -29q16 -145 136 -145q130 2 311.5 123.5t367.5 329.5q42 49 75 95q62 188 131 341q35 81 67 163 q212 531 474 974l91 153q85 -13 122 -54q22 -25 22 -55q0 -18 -9 -39.5t-50 -91.5q-243 -401 -468 -934q-103 -252 -164 -476q-105 -387 -129 -670l-9 -100q-168 0 -168 251q0 125 29 278q-217 -238 -404 -368q-176 -123 -327 -123q-176 8 -305 186q-29 45 -29 117 q0 55 29 173t124.5 334t209.5 450q129 262 233 501.5t131 409.5l1 21q0 105 -122 105q-73 0 -185.5 -48.5t-229 -166.5t-167.5 -286q-72 101 -72 206zM1174 2084q24 38 164 185q116 127 132 149q15 -40 204 -382l-59 13q-58 14 -69 30l-107 163l-145 -135q-11 -9 -37 -15 q-40 -9 -75 -9z" />
<glyph unicode="&#xdc;" horiz-adv-x="1761" d="M0 1659q0 18 8 89.5t94 177t214.5 169.5t270.5 64q152 0 287 -92q121 -83 121 -212q0 -102 -68.5 -271t-212.5 -464q-127 -260 -299 -637q-132 -299 -132 -449q0 -15 1 -29q16 -145 136 -145q130 2 311.5 123.5t367.5 329.5q42 49 75 95q62 188 131 341q35 81 67 163 q212 531 474 974l91 153q85 -13 122 -54q22 -25 22 -55q0 -18 -9 -39.5t-50 -91.5q-243 -401 -468 -934q-103 -252 -164 -476q-105 -387 -129 -670l-9 -100q-168 0 -168 251q0 125 29 278q-217 -238 -404 -368q-176 -123 -327 -123q-176 8 -305 186q-29 45 -29 117 q0 55 29 173t124.5 334t209.5 450q129 262 233 501.5t131 409.5l1 21q0 105 -122 105q-73 0 -185.5 -48.5t-229 -166.5t-167.5 -286q-72 101 -72 206zM1230 2230q0 13 14 26l70 73q12 12 27 12q7 0 13.5 -3t84.5 -86q9 -7 9 -24q-1 -10 -3 -15.5t-80 -89.5q-18 -16 -24 -16 q-10 0 -16.5 2.5t-48.5 51.5t-44 54.5t-2 14.5zM1505 2192q0 13 14 26l70 73q12 12 27 12q7 0 13.5 -3t84.5 -86q9 -7 9 -24q-1 -10 -3 -15.5t-80 -89.5q-18 -16 -24 -16q-10 0 -16.5 2.5t-48.5 51.5t-44 54.5t-2 14.5z" />
<glyph unicode="&#xdd;" horiz-adv-x="1566" d="M0 -507q168 4 308 63.5t288.5 231.5t338.5 513q-215 -211 -411 -213q-134 0 -240 154q-33 56 -33 111q0 52 18 149q27 150 228 614q87 201 158 388q83 218 90 343q0 93 -91 93q-46 0 -123 -35t-168 -127.5t-150 -227.5q-60 80 -60 162q0 18 9 77t85 143.5t183.5 134.5 t217.5 50q117 -2 207 -73q97 -77 97 -196q0 -99 -56.5 -253.5t-167.5 -405.5q-80 -183 -180 -424q-113 -278 -113 -412q0 -147 100 -147q117 10 272 132t322 327q227 450 446 910q141 294 284 587q78 -15 126 -60q35 -32 35 -66q0 -13 -5.5 -25.5t-31.5 -66.5 q-383 -814 -674 -1349q-106 -193 -262 -448q-385 -629 -579 -731q-104 -46 -187 -46q-5 0 -51 2t-106.5 31t-91.5 60zM1204 2122l180 279l21 1q80 0 104 -33q2 -4 2 -10q0 -45 -94 -166q-39 -50 -57 -65q-39 -30 -86 -30q-33 0 -58 16z" />
<glyph unicode="&#xde;" horiz-adv-x="1714" d="M0 -318l887 2028q45 99 94 215t97 221q106 -19 113 -121q0 -37 -16 -77q-9 -22 -61 -126q48 -1 96 -5q84 -6 179 -45.5t176 -113t122 -183.5q28 -71 28 -158q0 -264 -263 -597q-226 -286 -509 -492q-251 -183 -445 -264q-81 -34 -136 -34q-29 0 -71 14 q-102 -229 -140 -270q-54 -52 -87 -52q-10 0 -27 6t-37 54zM353 63h2q77 0 251.5 103t371.5 267.5t337 345.5q256 345 256 598q0 147 -110 244t-283 97q-58 0 -122 -11z" />
<glyph unicode="&#xdf;" horiz-adv-x="1251" d="M0 176q0 10 2.5 36.5t30.5 93.5q91 216 752 1669q110 -32 110 -125q0 -34 -20 -80q-40 -88 -102 -216q-85 -176 -222 -473q127 18 272.5 109t271 227.5t192.5 288.5q48 108 48 210q0 42 -8 83q-13 51 -75 51q-128 -5 -337 -135q-42 30 -42 57q0 29 58 68q75 56 183 91 q73 24 142 24q148 -6 210 -124q31 -82 31 -182q0 -99 -51 -226.5t-209 -294.5t-367 -283q57 0 120 -16t107 -36q167 -77 256 -208q84 -122 84 -260q-17 -363 -510 -497q-114 -28 -211 -28q-45 0 -131 12.5t-177 64.5t-138 109.5t-47 93.5l28 -32q75 -89 241 -126 q48 -10 106 -10t160 14.5t283 97.5q183 88 230 197q24 55 24 110q0 52 -33 130.5t-124 157.5t-184 109q-80 26 -182 26q-22 0 -99.5 -4.5t-215.5 -75.5q-157 -356 -238 -567l-82 -211q-20 -5 -42 -5q-95 0 -95 85z" />
<glyph unicode="&#xe0;" horiz-adv-x="933" d="M-180 303q0 137 94 330q197 363 442 363q128 0 209 -111l16 -21l56 125q31 0 70 -11q77 -21 77 -70q0 -12 -169 -369q-157 -334 -157 -412q0 -19 9 -20q52 0 276 325l226 341v-90q-363 -615 -422 -661q-25 -19 -70 -19q-70 0 -122.5 41t-52.5 135q-110 -176 -236 -176 q-179 17 -233 207q-13 43 -13 93zM-19 276q0 -176 78 -186q85 0 331 364q91 211 156 341q0 10 -39 49t-104 39q-67 0 -145 -51.5t-184 -248.5q-93 -186 -93 -307zM391 1314q0 6 2 10q24 33 104 33l22 -1l180 -279q-38 -24 -71 -24q-47 0 -85 30q-19 15 -58 65 q-94 121 -94 166z" />
<glyph unicode="&#xe1;" horiz-adv-x="933" d="M-180 303q0 137 94 330q197 363 442 363q128 0 209 -111l16 -21l56 125q31 0 70 -11q77 -21 77 -70q0 -12 -169 -369q-157 -334 -157 -412q0 -19 9 -20q52 0 276 325l226 341v-90q-363 -615 -422 -661q-25 -19 -70 -19q-70 0 -122.5 41t-52.5 135q-110 -176 -236 -176 q-179 17 -233 207q-13 43 -13 93zM-19 276q0 -176 78 -186q85 0 331 364q91 211 156 341q0 10 -39 49t-104 39q-67 0 -145 -51.5t-184 -248.5q-93 -186 -93 -307zM459 1071l180 279l22 1q80 0 104 -33q2 -4 2 -10q0 -45 -94 -166q-39 -50 -57 -65q-39 -30 -86 -30 q-33 0 -58 16z" />
<glyph unicode="&#xe2;" horiz-adv-x="933" d="M-180 303q0 137 94 330q197 363 442 363q128 0 209 -111l16 -21l56 125q31 0 70 -11q77 -21 77 -70q0 -12 -169 -369q-157 -334 -157 -412q0 -19 9 -20q52 0 276 325l226 341v-90q-363 -615 -422 -661q-25 -19 -70 -19q-70 0 -122.5 41t-52.5 135q-110 -176 -236 -176 q-179 17 -233 207q-13 43 -13 93zM-19 276q0 -176 78 -186q85 0 331 364q91 211 156 341q0 10 -39 49t-104 39q-67 0 -145 -51.5t-184 -248.5q-93 -186 -93 -307zM248 1074q23 38 163 185q116 127 132 149q16 -40 205 -382l-60 13q-57 14 -68 30l-107 163l-145 -135 q-12 -9 -37 -15q-40 -9 -76 -9z" />
<glyph unicode="&#xe3;" horiz-adv-x="933" d="M-180 303q0 137 94 330q197 363 442 363q128 0 209 -111l16 -21l56 125q31 0 70 -11q77 -21 77 -70q0 -12 -169 -369q-157 -334 -157 -412q0 -19 9 -20q52 0 276 325l226 341v-90q-363 -615 -422 -661q-25 -19 -70 -19q-70 0 -122.5 41t-52.5 135q-110 -176 -236 -176 q-179 17 -233 207q-13 43 -13 93zM-19 276q0 -176 78 -186q85 0 331 364q91 211 156 341q0 10 -39 49t-104 39q-67 0 -145 -51.5t-184 -248.5q-93 -186 -93 -307zM270 1102q62 179 193 179q59 0 143 -44q78 -44 128 -44q24 0 46 14.5t43 57.5l53 -9q-64 -174 -192 -174 q-65 0 -144 44.5t-129 44.5q-26 0 -47 -15t-41 -63z" />
<glyph unicode="&#xe4;" horiz-adv-x="933" d="M-180 303q0 137 94 330q197 363 442 363q128 0 209 -111l16 -21l56 125q31 0 70 -11q77 -21 77 -70q0 -12 -169 -369q-157 -334 -157 -412q0 -19 9 -20q52 0 276 325l226 341v-90q-363 -615 -422 -661q-25 -19 -70 -19q-70 0 -122.5 41t-52.5 135q-110 -176 -236 -176 q-179 17 -233 207q-13 43 -13 93zM-19 276q0 -176 78 -186q85 0 331 364q91 211 156 341q0 10 -39 49t-104 39q-67 0 -145 -51.5t-184 -248.5q-93 -186 -93 -307zM316 1219q0 13 14 26l70 73q12 12 27 12q6 0 13 -3t84 -86q10 -7 10 -24q-1 -10 -3 -15.5t-81 -89.5 q-17 -16 -23 -16q-10 0 -16.5 2.5t-48.5 51.5t-44 54.5t-2 14.5zM591 1181q0 13 14 26l70 73q12 12 27 12q6 0 13 -3t84 -86q10 -7 10 -24q-1 -10 -3 -15.5t-81 -89.5q-17 -16 -23 -16q-10 0 -16.5 2.5t-48.5 51.5t-44 54.5t-2 14.5z" />
<glyph unicode="&#xe5;" horiz-adv-x="933" d="M-180 303q0 137 94 330q169 312 374 356q-27 43 -27 98q0 77 54.5 130t133.5 53q81 0 136 -53.5t55 -129.5q0 -78 -55 -131q-23 -23 -50 -36q13 -13 46 -56l56 125q32 0 71 -11q77 -21 77 -70q0 -12 -170 -369q-157 -334 -157 -412q0 -19 9 -20q52 0 277 325l225 341v-90 q-363 -615 -422 -661q-25 -19 -70 -19q-70 0 -122.5 41t-52.5 135q-109 -176 -236 -176q-178 17 -233 207q-13 43 -13 93zM-19 276q0 -176 78 -186q86 0 331 364q92 211 156 341q0 10 -39 49t-104 39q-67 0 -145 -51.5t-184 -248.5q-93 -186 -93 -307zM342 1087 q0 -44 31 -74q14 -14 32 -21q16 -3 31 -8q6 -1 13 -1q45 0 76 30t31 74q0 41 -31.5 71.5t-75.5 30.5t-75.5 -30.5t-31.5 -71.5z" />
<glyph unicode="&#xe6;" horiz-adv-x="1474" d="M0 308q0 137 94 330q197 364 442 364q71 -1 123.5 -35t95.5 -90q87 63 164 85q69 19 146 19q112 0 155 -43.5t43 -89.5q-3 -91 -55.5 -159.5t-157.5 -132.5q-118 -64 -389 -159q-18 -89 -18 -152q0 -155 91 -155q51 0 136 55q158 102 398 365q96 105 221 253l3 -97 q-31 -39 -66 -85q-97 -128 -217 -266q-274 -315 -493 -315q-163 0 -234 184q-107 -175 -229 -175q-96 0 -174 71q-75 68 -79 228zM156 253q0 -63 21 -108q23 -50 63 -50q69 0 241 238v3q0 122 72 287q69 125 151 209q-25 28 -51 41q-31 15 -75 15q-65 0 -141.5 -51.5 t-182.5 -248.5q-89 -185 -96 -297q-2 -20 -2 -38zM681 472q36 14 82 30q111 35 237 102q106 64 146 121.5t40 97.5q0 39 -23 54t-67 15q-86 0 -190.5 -76t-182.5 -236q-26 -57 -42 -108z" />
<glyph unicode="&#xe7;" horiz-adv-x="829" d="M-160 340q0 123 73 288q89 207 275 307q95 52 225 52l32 -1q77 -7 131 -59t54 -114q0 -2 -1.5 -35t-46.5 -88q-73 -90 -174 -90q-31 0 -107 12q73 26 145.5 77t108.5 103q18 26 18 45q0 20 -18 34q-32 21 -82 21q-22 0 -76.5 -9t-145.5 -81t-160 -217q-80 -178 -80 -321 q0 -58 17 -108q22 -65 73 -65q52 0 136 56q218 144 610 619l2 -97q-250 -326 -420 -491q-183 -177 -309 -177l-20 1q-4 -9 -4 -15q0 -8 8 -8q35 5 68 6q86 0 134 -40.5t48 -113.5q0 -76 -58.5 -120.5t-160.5 -44.5q-109 0 -174 25q-29 17 -29 49q0 23 14 54q85 -52 152 -52 q66 0 94.5 21.5t28.5 66.5q0 80 -151 80l-26 -1q-62 0 -71 46q0 25 47 72q-65 32 -112 92q-68 86 -68 221z" />
<glyph unicode="&#xe8;" horiz-adv-x="815" d="M-170 340q0 122 72 287q193 359 503 359q116 0 164 -46q43 -42 43 -88q0 -19 -8 -59.5t-54 -104t-151 -128.5q-87 -49 -390 -159q-14 -65 -14 -123q0 -67 20 -121q24 -67 76 -67q51 0 136 56q214 140 611 622l3 -97q-24 -30 -49 -63q-226 -289 -373 -430 q-184 -178 -310 -178q-28 0 -54 8q-95 31 -157 110q-68 86 -68 222zM30 477q33 14 82 30q111 34 237 101q106 64 146 121.5t40 97.5q-1 39 -16 49q-30 20 -72 20q-27 0 -83 -14t-142 -89q-124 -108 -192 -316zM333 1295q0 6 1 10q25 33 104 33l22 -1l180 -279 q-38 -24 -71 -24q-46 0 -85 30q-19 15 -58 65q-93 121 -93 166z" />
<glyph unicode="&#xe9;" horiz-adv-x="815" d="M-170 340q0 122 72 287q193 359 503 359q116 0 164 -46q43 -42 43 -88q0 -19 -8 -59.5t-54 -104t-151 -128.5q-87 -49 -390 -159q-14 -65 -14 -123q0 -67 20 -121q24 -67 76 -67q51 0 136 56q214 140 611 622l3 -97q-24 -30 -49 -63q-226 -289 -373 -430 q-184 -178 -310 -178q-28 0 -54 8q-95 31 -157 110q-68 86 -68 222zM30 477q33 14 82 30q111 34 237 101q106 64 146 121.5t40 97.5q-1 39 -16 49q-30 20 -72 20q-27 0 -83 -14t-142 -89q-124 -108 -192 -316zM375 1057l180 279l21 1q80 0 104 -33q2 -4 2 -10 q0 -45 -94 -166q-39 -50 -57 -65q-39 -30 -86 -30q-33 0 -58 16z" />
<glyph unicode="&#xea;" horiz-adv-x="815" d="M-170 340q0 122 72 287q193 359 503 359q116 0 164 -46q43 -42 43 -88q0 -19 -8 -59.5t-54 -104t-151 -128.5q-87 -49 -390 -159q-14 -65 -14 -123q0 -67 20 -121q24 -67 76 -67q51 0 136 56q214 140 611 622l3 -97q-24 -30 -49 -63q-226 -289 -373 -430 q-184 -178 -310 -178q-28 0 -54 8q-95 31 -157 110q-68 86 -68 222zM30 477q33 14 82 30q111 34 237 101q106 64 146 121.5t40 97.5q-1 39 -16 49q-30 20 -72 20q-27 0 -83 -14t-142 -89q-124 -108 -192 -316zM208 1057q24 35 164 173q116 119 132 140q15 -38 204 -358 l-59 12q-58 13 -69 29l-107 152l-145 -127q-11 -8 -37 -13q-40 -9 -75 -9z" />
<glyph unicode="&#xeb;" horiz-adv-x="815" d="M-170 340q0 122 72 287q193 359 503 359q116 0 164 -46q43 -42 43 -88q0 -19 -8 -59.5t-54 -104t-151 -128.5q-87 -49 -390 -159q-14 -65 -14 -123q0 -67 20 -121q24 -67 76 -67q51 0 136 56q214 140 611 622l3 -97q-24 -30 -49 -63q-226 -289 -373 -430 q-184 -178 -310 -178q-28 0 -54 8q-95 31 -157 110q-68 86 -68 222zM30 477q33 14 82 30q111 34 237 101q106 64 146 121.5t40 97.5q-1 39 -16 49q-30 20 -72 20q-27 0 -83 -14t-142 -89q-124 -108 -192 -316zM239 1177q0 13 14 26l70 73q12 12 27 12q7 0 13.5 -3t84.5 -86 q9 -7 9 -24q-1 -10 -3 -15.5t-80 -89.5q-18 -16 -24 -16q-10 0 -16.5 2.5t-48.5 51.5t-44 54.5t-2 14.5zM514 1139q0 13 14 26l70 73q12 12 27 12q7 0 13.5 -3t84.5 -86q9 -7 9 -24q-1 -10 -3 -15.5t-80 -89.5q-18 -16 -24 -16q-10 0 -16.5 2.5t-48.5 51.5t-44 54.5t-2 14.5 z" />
<glyph unicode="&#xec;" horiz-adv-x="447" d="M-240 157q0 68 39 168q121 297 255 566l48 97q10 1 24 1q71 0 105 -27q21 -17 21 -43q0 -19 -11 -42q-126 -249 -221 -467q-99 -226 -99 -283q0 -17 9 -21q43 0 281 327q96 131 240 337l23 -88q-326 -447 -370 -514q-56 -86 -96 -129q-37 -39 -81 -39h-8q-102 8 -143 84 q-16 30 -16 73zM90 1298q0 6 1 10q25 33 104 33l22 -1l180 -279q-38 -24 -71 -24q-46 0 -85 30q-19 15 -58 65q-93 121 -93 166z" />
<glyph unicode="&#xed;" horiz-adv-x="447" d="M-240 157q0 68 39 168q121 297 255 566l48 97q10 1 24 1q71 0 105 -27q21 -17 21 -43q0 -19 -11 -42q-126 -249 -221 -467q-99 -226 -99 -283q0 -17 9 -21q43 0 281 327q96 131 240 337l23 -88q-326 -447 -370 -514q-56 -86 -96 -129q-37 -39 -81 -39h-8q-102 8 -143 84 q-16 30 -16 73zM86 1103l268 197l20 -7q75 -28 86 -68q0 -41 -149 -131q-54 -34 -76 -41t-44 -7q-63 0 -105 57z" />
<glyph unicode="&#xee;" horiz-adv-x="447" d="M-240 157q0 68 39 168q121 297 255 566l48 97q10 1 24 1q71 0 105 -27q21 -17 21 -43q0 -19 -11 -42q-126 -249 -221 -467q-99 -226 -99 -283q0 -17 9 -21q43 0 281 327q96 131 240 337l23 -88q-326 -447 -370 -514q-56 -86 -96 -129q-37 -39 -81 -39h-8q-102 8 -143 84 q-16 30 -16 73zM-35 1054q24 35 164 173q116 119 132 140q15 -38 204 -358l-59 12q-58 13 -69 29l-107 152l-145 -127q-11 -8 -37 -13q-40 -9 -75 -9z" />
<glyph unicode="&#xef;" horiz-adv-x="447" d="M-240 157q0 68 39 168q121 297 255 566l48 97q10 1 24 1q71 0 105 -27q21 -17 21 -43q0 -19 -11 -42q-126 -249 -221 -467q-99 -226 -99 -283q0 -17 9 -21q43 0 281 327q96 131 240 337l23 -88q-326 -447 -370 -514q-56 -86 -96 -129q-37 -39 -81 -39h-8q-102 8 -143 84 q-16 30 -16 73zM-10 1200q0 13 14 26l70 73q12 12 27 12q7 0 13.5 -3t84.5 -86q9 -7 9 -24q-1 -10 -3 -15.5t-80 -89.5q-18 -16 -24 -16q-10 0 -16.5 2.5t-48.5 51.5t-44 54.5t-2 14.5zM265 1162q0 13 14 26l70 73q12 12 27 12q7 0 13.5 -3t84.5 -86q9 -7 9 -24 q-1 -10 -3 -15.5t-80 -89.5q-18 -16 -24 -16q-10 0 -16.5 2.5t-48.5 51.5t-44 54.5t-2 14.5z" />
<glyph unicode="&#xf0;" horiz-adv-x="950" d="M0 378q0 124 64 288q64 154 154 243q154 152 345 152q123 0 189 -72q29 104 29 210q0 73 -14 147l-263 -106q0 50 8.5 72.5t60.5 43.5l176 71q-38 132 -117 267q26 4 47 4q27 0 50 -9.5t46 -41.5q65 -75 106 -166l269 108q2 -13 2 -25q0 -63 -62 -88l-179 -72 q35 -112 39 -248q0 -166 -87 -391q-86 -204 -126.5 -376t-43.5 -389l-15 8q-36 17 -76.5 56t-50.5 119q4 106 33 230q-76 -178 -155 -280q-70 -90 -160 -90q-12 0 -25 2q-101 16 -167 93q-77 89 -77 240zM177 329q0 -75 22 -130q27 -68 62 -68q45 0 117 98q125 169 296 516 l59 185q-31 31 -99 31q-100 0 -218 -87q-98 -73 -171 -241q-68 -169 -68 -304z" />
<glyph unicode="&#xf1;" horiz-adv-x="990" d="M-200 157q0 61 33.5 186t154.5 410q39 91 109 234l19 -1q134 -7 134 -78q0 -52 -70 -188q-73 -146 -153 -365q-62 -170 -62 -220q0 -16 6 -20q126 197 244 391q55 95 131 206q187 268 315 272q84 -1 126 -26q24 -15 24 -43q0 -18 -11 -42q-133 -267 -221 -465 q-98 -225 -98 -282q0 -17 8 -21q45 0 279 327l237 337l10 -100q-233 -341 -277 -407q-98 -152 -150 -209q-46 -53 -98 -53l-11 1q-101 7 -142 83q-16 30 -16 72q0 68 39 168q120 289 220 494q-9 13 -23 13q-39 0 -126 -112q-68 -88 -177 -260q-48 -72 -115 -194 q-60 -109 -111.5 -185.5t-85.5 -76.5q-142 22 -142 154zM217 1132q62 179 193 179q59 0 143 -44q78 -44 128 -44q25 0 46.5 14.5t42.5 57.5l53 -9q-64 -174 -192 -174q-65 0 -144 44.5t-128 44.5q-27 0 -48 -15t-41 -63z" />
<glyph unicode="&#xf2;" horiz-adv-x="919" d="M-160 328q0 128 76 299q96 200 229 282q127 78 247 78q97 0 160 -35q56 -32 73 -75l1 -5q0 -28 -28 -28l-13 2q-37 37 -127 37q-89 0 -193.5 -67.5t-185.5 -231.5q-76 -167 -76 -299q0 -72 21.5 -126.5t52.5 -67.5q20 -8 43 -8q51 0 129 50t161 158q-35 62 -35 134 q0 9 2 55t26.5 112.5t45.5 86.5q30 27 77 27q29 0 58 -13q10 56 10 91v6q1 18 14.5 29t32.5 11q13 0 22 -8q4 -27 4 -57q0 -89 -39 -214t-98 -234q34 -40 71 -40q72 0 167 144q89 137 171 332l5 13v-110q-30 -92 -79 -193.5t-112.5 -179.5t-135.5 -100q-17 -5 -34 -5 q-56 0 -113 51q-96 -122 -205 -182q-84 -47 -156 -47q-23 0 -44 5q-99 22 -160 102q-65 83 -65 221zM356 1323q0 6 1 10q25 33 104 33l22 -1l180 -279q-38 -24 -71 -24q-46 0 -85 30q-19 15 -58 65q-93 121 -93 166zM518 480q31 72 48 136q-35 -56 -48 -136z" />
<glyph unicode="&#xf3;" horiz-adv-x="919" d="M-160 328q0 128 76 299q96 200 229 282q127 78 247 78q97 0 160 -35q56 -32 73 -75l1 -5q0 -28 -28 -28l-13 2q-37 37 -127 37q-89 0 -193.5 -67.5t-185.5 -231.5q-76 -167 -76 -299q0 -72 21.5 -126.5t52.5 -67.5q20 -8 43 -8q51 0 129 50t161 158q-35 62 -35 134 q0 9 2 55t26.5 112.5t45.5 86.5q30 27 77 27q29 0 58 -13q10 56 10 91v6q1 18 14.5 29t32.5 11q13 0 22 -8q4 -27 4 -57q0 -89 -39 -214t-98 -234q34 -40 71 -40q72 0 167 144q89 137 171 332l5 13v-110q-30 -92 -79 -193.5t-112.5 -179.5t-135.5 -100q-17 -5 -34 -5 q-56 0 -113 51q-96 -122 -205 -182q-84 -47 -156 -47q-23 0 -44 5q-99 22 -160 102q-65 83 -65 221zM389 1079l180 279l21 1q80 0 104 -33q2 -4 2 -10q0 -45 -94 -166q-39 -50 -57 -65q-39 -30 -85 -30q-33 0 -59 16zM518 480q31 72 48 136q-35 -56 -48 -136z" />
<glyph unicode="&#xf4;" horiz-adv-x="919" d="M-160 328q0 128 76 299q96 200 229 282q127 78 247 78q97 0 160 -35q56 -32 73 -75l1 -5q0 -28 -28 -28l-13 2q-37 37 -127 37q-89 0 -193.5 -67.5t-185.5 -231.5q-76 -167 -76 -299q0 -72 21.5 -126.5t52.5 -67.5q20 -8 43 -8q51 0 129 50t161 158q-35 62 -35 134 q0 9 2 55t26.5 112.5t45.5 86.5q30 27 77 27q29 0 58 -13q10 56 10 91v6q1 18 14.5 29t32.5 11q13 0 22 -8q4 -27 4 -57q0 -89 -39 -214t-98 -234q34 -40 71 -40q72 0 167 144q89 137 171 332l5 13v-110q-30 -92 -79 -193.5t-112.5 -179.5t-135.5 -100q-17 -5 -34 -5 q-56 0 -113 51q-96 -122 -205 -182q-84 -47 -156 -47q-23 0 -44 5q-99 22 -160 102q-65 83 -65 221zM196 1026q24 38 164 185q116 127 132 149q15 -40 204 -382l-59 13q-58 14 -68 30l-108 163l-145 -135q-11 -9 -37 -15q-40 -9 -75 -9zM518 480q31 72 48 136 q-35 -56 -48 -136z" />
<glyph unicode="&#xf5;" horiz-adv-x="919" d="M-160 328q0 128 76 299q96 200 229 282q127 78 247 78q97 0 160 -35q56 -32 73 -75l1 -5q0 -28 -28 -28l-13 2q-37 37 -127 37q-89 0 -193.5 -67.5t-185.5 -231.5q-76 -167 -76 -299q0 -72 21.5 -126.5t52.5 -67.5q20 -8 43 -8q51 0 129 50t161 158q-35 62 -35 134 q0 9 2 55t26.5 112.5t45.5 86.5q30 27 77 27q29 0 58 -13q10 56 10 91v6q1 18 14.5 29t32.5 11q13 0 22 -8q4 -27 4 -57q0 -89 -39 -214t-98 -234q34 -40 71 -40q72 0 167 144q89 137 171 332l5 13v-110q-30 -92 -79 -193.5t-112.5 -179.5t-135.5 -100q-17 -5 -34 -5 q-56 0 -113 51q-96 -122 -205 -182q-84 -47 -156 -47q-23 0 -44 5q-99 22 -160 102q-65 83 -65 221zM169 1069q62 179 193 179q59 0 143 -44q78 -44 128 -44q25 0 46.5 14.5t42.5 57.5l53 -9q-64 -174 -192 -174q-65 0 -144 44.5t-128 44.5q-26 0 -47.5 -15t-41.5 -63z M518 480q31 72 48 136q-35 -56 -48 -136z" />
<glyph unicode="&#xf6;" horiz-adv-x="919" d="M-160 328q0 128 76 299q96 200 229 282q127 78 247 78q97 0 160 -35q56 -32 73 -75l1 -5q0 -28 -28 -28l-13 2q-37 37 -127 37q-89 0 -193.5 -67.5t-185.5 -231.5q-76 -167 -76 -299q0 -72 21.5 -126.5t52.5 -67.5q20 -8 43 -8q51 0 129 50t161 158q-35 62 -35 134 q0 9 2 55t26.5 112.5t45.5 86.5q30 27 77 27q29 0 58 -13q10 56 10 91v6q1 18 14.5 29t32.5 11q13 0 22 -8q4 -27 4 -57q0 -89 -39 -214t-98 -234q34 -40 71 -40q72 0 167 144q89 137 171 332l5 13v-110q-30 -92 -79 -193.5t-112.5 -179.5t-135.5 -100q-17 -5 -34 -5 q-56 0 -113 51q-96 -122 -205 -182q-84 -47 -156 -47q-23 0 -44 5q-99 22 -160 102q-65 83 -65 221zM253 1209q0 13 14 26l70 73q12 12 28 12q6 0 13 -3t84 -86q9 -7 9 -24q-1 -10 -3 -15.5t-80 -89.5q-18 -16 -23 -16q-11 0 -17.5 2.5t-48.5 51.5t-44 54.5t-2 14.5z M518 480q31 72 48 136q-35 -56 -48 -136zM528 1171q0 13 14 26l70 73q12 12 28 12q6 0 13 -3t84 -86q9 -7 9 -24q-1 -10 -3 -15.5t-80 -89.5q-18 -16 -23 -16q-11 0 -17.5 2.5t-48.5 51.5t-44 54.5t-2 14.5z" />
<glyph unicode="&#xf7;" horiz-adv-x="1014" d="M36 631q24 78 44.5 108.5t90.5 30.5h784q-22 -139 -124 -140zM303 397q0 15 16 31l82 84q15 14 29 14q13 0 31 -16l80 -86q12 -16 12 -29q0 -15 -14 -31l-80 -88q-20 -20 -29 -20q-16 0 -29 14l-88 101q-10 13 -10 26zM425 1030q0 15 16 31l82 84q15 14 29 14 q13 0 31 -16l80 -86q12 -16 12 -29q0 -15 -14 -31l-80 -88q-20 -20 -29 -20q-16 0 -29 14l-88 101q-10 13 -10 26z" />
<glyph unicode="&#xf8;" horiz-adv-x="919" d="M-160 328q0 128 76 299q96 200 229 282q117 72 228 78l143 372l9 -3q23 -5 44 -28t21 -56q0 -40 -26 -93q-21 -43 -82 -201q39 -9 70 -26q65 -37 74 -80q0 -5 -3 -11q-5 -17 -25 -17l-13 2q-37 37 -127 37h-13q-53 -137 -126 -334l-176 -464q44 9 106 48q78 50 161 158 q-36 62 -36 134q0 9 2.5 55t27 112.5t45.5 86.5q30 27 77 27q29 0 58 -13q10 56 10 91q0 23 14 34.5t33 11.5q13 0 22 -8q4 -27 4 -57q0 -89 -39 -214t-98 -234q34 -40 71 -40q72 0 167 144q89 137 171 332l5 13v-110q-30 -92 -79 -193.5t-112.5 -179.5t-135.5 -100 q-17 -5 -35 -5q-55 0 -112 51q-96 -122 -205 -182q-84 -47 -155 -47q-111 -286 -139 -326q-34 -34 -57 -34q-26 0 -40 43l131 342q-59 28 -100 82q-65 83 -65 221zM3 285q0 -102 39 -162l278 724q-27 -13 -55 -31q-105 -68 -186 -232q-76 -167 -76 -299zM518 480 q31 72 48 136q-35 -56 -48 -136z" />
<glyph unicode="&#xf9;" horiz-adv-x="1033" d="M-240 162q0 65 38 164q118 289 302 660h13q87 0 122 -43q11 -13 11 -32q0 -16 -8 -35q-35 -78 -84 -182q-233 -485 -233 -566q0 -16 7 -21q12 -5 24 -5q122 0 526 628q110 171 174 256l27 1q63 0 98 -24q25 -17 25 -45q0 -18 -11 -42q-319 -646 -319 -748q0 -17 9 -21 q80 0 567 666l10 -78q-348 -462 -379 -507q-65 -95 -109.5 -140.5t-91.5 -45.5q-107 4 -150 84q-16 30 -16 73q0 67 39 167q38 91 84 179q31 60 57 117q-69 -109 -153 -225q-45 -63 -86 -123q-103 -152 -180 -219q-64 -55 -128 -55q-14 0 -27 2q-101 15 -142 88 q-16 29 -16 72zM263 1314q0 6 1 10q25 33 104 33l22 -1l180 -279q-38 -24 -71 -24q-46 0 -85 30q-19 15 -58 65q-93 121 -93 166z" />
<glyph unicode="&#xfa;" horiz-adv-x="1033" d="M-240 162q0 65 38 164q118 289 302 660h13q87 0 122 -43q11 -13 11 -32q0 -16 -8 -35q-35 -78 -84 -182q-233 -485 -233 -566q0 -16 7 -21q12 -5 24 -5q122 0 526 628q110 171 174 256l27 1q63 0 98 -24q25 -17 25 -45q0 -18 -11 -42q-319 -646 -319 -748q0 -17 9 -21 q80 0 567 666l10 -78q-348 -462 -379 -507q-65 -95 -109.5 -140.5t-91.5 -45.5q-107 4 -150 84q-16 30 -16 73q0 67 39 167q38 91 84 179q31 60 57 117q-69 -109 -153 -225q-45 -63 -86 -123q-103 -152 -180 -219q-64 -55 -128 -55q-14 0 -27 2q-101 15 -142 88 q-16 29 -16 72zM306 1047l180 279l22 1q79 0 104 -33q1 -4 1 -10q0 -45 -93 -166q-39 -50 -58 -65q-39 -30 -85 -30q-33 0 -59 16z" />
<glyph unicode="&#xfb;" horiz-adv-x="1033" d="M-240 162q0 65 38 164q118 289 302 660h13q87 0 122 -43q11 -13 11 -32q0 -16 -8 -35q-35 -78 -84 -182q-233 -485 -233 -566q0 -16 7 -21q12 -5 24 -5q122 0 526 628q110 171 174 256l27 1q63 0 98 -24q25 -17 25 -45q0 -18 -11 -42q-319 -646 -319 -748q0 -17 9 -21 q80 0 567 666l10 -78q-348 -462 -379 -507q-65 -95 -109.5 -140.5t-91.5 -45.5q-107 4 -150 84q-16 30 -16 73q0 67 39 167q38 91 84 179q31 60 57 117q-69 -109 -153 -225q-45 -63 -86 -123q-103 -152 -180 -219q-64 -55 -128 -55q-14 0 -27 2q-101 15 -142 88 q-16 29 -16 72zM196 1073q24 38 164 185q116 127 132 149q15 -40 204 -382l-59 13q-58 14 -68 30l-108 163l-145 -135q-11 -9 -37 -15q-40 -9 -75 -9z" />
<glyph unicode="&#xfc;" horiz-adv-x="1033" d="M-240 162q0 65 38 164q118 289 302 660h13q87 0 122 -43q11 -13 11 -32q0 -16 -8 -35q-35 -78 -84 -182q-233 -485 -233 -566q0 -16 7 -21q12 -5 24 -5q122 0 526 628q110 171 174 256l27 1q63 0 98 -24q25 -17 25 -45q0 -18 -11 -42q-319 -646 -319 -748q0 -17 9 -21 q80 0 567 666l10 -78q-348 -462 -379 -507q-65 -95 -109.5 -140.5t-91.5 -45.5q-107 4 -150 84q-16 30 -16 73q0 67 39 167q38 91 84 179q31 60 57 117q-69 -109 -153 -225q-45 -63 -86 -123q-103 -152 -180 -219q-64 -55 -128 -55q-14 0 -27 2q-101 15 -142 88 q-16 29 -16 72zM219 1219q0 13 14 26l70 73q12 12 28 12q6 0 13 -3t84 -86q9 -7 9 -24q-1 -10 -3 -15.5t-80 -89.5q-18 -16 -23 -16q-11 0 -17.5 2.5t-48.5 51.5t-44 54.5t-2 14.5zM494 1181q0 13 14 26l70 73q12 12 28 12q6 0 13 -3t84 -86q9 -7 9 -24q-1 -10 -3 -15.5 t-80 -89.5q-18 -16 -23 -16q-11 0 -17.5 2.5t-48.5 51.5t-44 54.5t-2 14.5z" />
<glyph unicode="&#xfd;" horiz-adv-x="772" d="M-620 -541q0 76 41 141q39 61 146 141.5t313 199.5q26 -16 26 -34q0 -37 -90 -85q-154 -83 -257.5 -177.5t-107.5 -179.5q2 -69 61 -100q46 -25 116 -25q19 0 41 2q116 11 216.5 180.5t223.5 488.5q84 208 177 409q-118 -158 -169 -238q-56 -85 -96 -128q-37 -38 -81 -38 q-108 4 -149 83q-16 30 -16 74q0 140 339 825q10 1 25 1q70 0 104 -28q20 -16 20 -41q0 -19 -11 -43q-129 -257 -220 -464q-98 -224 -98 -282q0 -16 8 -20q26 0 105 95.5t173.5 225t164.5 230t75 107.5q34 67 65 123q57 97 105 97q32 0 61 -24.5t61 -63.5l-27 -35 q-27 -35 -83 -133q-140 -246 -352 -769q-249 -611 -453 -726q-87 -48 -166 -48q-195 0 -265 149q-26 55 -26 110z" />
<glyph unicode="&#xfe;" horiz-adv-x="1540" d="M0 -325l887 2028q47 103 92 210q47 111 99 226q108 -19 113 -121q0 -54 -54 -157q-42 -105 -258 -609q152 213 316 213h9q253 -32 322 -304q14 -54 14 -116q0 -200 -148 -480q-289 -497 -630 -497q-190 0 -305 168l-16 23q-73 -158 -169 -363q-90 -200 -120 -235 q-41 -43 -81 -48h-6q-37 0 -65 62zM488 362q0 -14 53 -70q56 -60 155 -60q92 0 199 66q113 70 273 345q145 272 145 461q0 221 -103 238h-2q-122 0 -483 -503q-139 -295 -237 -477z" />
<glyph unicode="&#xff;" horiz-adv-x="772" d="M-620 -541q0 76 41 141q39 61 146 141.5t313 199.5q26 -16 26 -34q0 -37 -90 -85q-154 -83 -257.5 -177.5t-107.5 -179.5q2 -69 61 -100q46 -25 116 -25q19 0 41 2q116 11 216.5 180.5t223.5 488.5q84 208 177 409q-118 -158 -169 -238q-56 -85 -96 -128q-37 -38 -81 -38 q-108 4 -149 83q-16 30 -16 74q0 140 339 825q10 1 25 1q70 0 104 -28q20 -16 20 -41q0 -19 -11 -43q-129 -257 -220 -464q-98 -224 -98 -282q0 -16 8 -20q26 0 105 95.5t173.5 225t164.5 230t75 107.5q34 67 65 123q57 97 105 97q32 0 61 -24.5t61 -63.5l-27 -35 q-27 -35 -83 -133q-140 -246 -352 -769q-249 -611 -453 -726q-87 -48 -166 -48q-195 0 -265 149q-26 55 -26 110zM348 1055l180 279l22 1q80 0 104 -33q2 -4 2 -10q0 -45 -94 -166q-39 -50 -57 -65q-39 -30 -86 -30q-33 0 -58 16z" />
<glyph unicode="&#x2c6;" horiz-adv-x="800" d="M150 1066q24 38 164 185q116 127 132 149q15 -40 204 -382l-59 13q-58 14 -69 30l-107 163l-145 -135q-11 -9 -37 -15q-40 -9 -75 -9z" />
<glyph unicode="&#x2dc;" horiz-adv-x="1024" d="M234 1132q38 211 197 211q46 -1 111.5 -24t115.5 -23q38 0 60 20t36 66h54q-40 -205 -197 -205q-52 0 -116.5 23.5t-112.5 23.5q-39 0 -60.5 -20.5t-33.5 -71.5h-54z" />
<glyph unicode="&#x2000;" horiz-adv-x="1249" />
<glyph unicode="&#x2001;" horiz-adv-x="2499" />
<glyph unicode="&#x2002;" horiz-adv-x="1249" />
<glyph unicode="&#x2003;" horiz-adv-x="2499" />
<glyph unicode="&#x2004;" horiz-adv-x="833" />
<glyph unicode="&#x2005;" horiz-adv-x="624" />
<glyph unicode="&#x2006;" horiz-adv-x="416" />
<glyph unicode="&#x2007;" horiz-adv-x="416" />
<glyph unicode="&#x2008;" horiz-adv-x="312" />
<glyph unicode="&#x2009;" horiz-adv-x="499" />
<glyph unicode="&#x200a;" horiz-adv-x="138" />
<glyph unicode="&#x2010;" horiz-adv-x="670" d="M84 410q13 78 24 108.5t49 30.5h424q-12 -139 -67 -140z" />
<glyph unicode="&#x2011;" horiz-adv-x="670" d="M84 410q13 78 24 108.5t49 30.5h424q-12 -139 -67 -140z" />
<glyph unicode="&#x2012;" horiz-adv-x="670" d="M84 410q13 78 24 108.5t49 30.5h424q-12 -139 -67 -140z" />
<glyph unicode="&#x2013;" horiz-adv-x="1108" d="M56 419v120h996v-120h-996z" />
<glyph unicode="&#x2014;" horiz-adv-x="2048" d="M0 419v120h2048v-120h-2048z" />
<glyph unicode="&#x2018;" horiz-adv-x="599" d="M100 1060q0 29 8.5 90t79.5 141q85 84 178 85q81 0 133 -48q-118 -33 -167 -82.5t-74 -100.5q-27 -48 -27 -99q0 -31 16 -62.5t74 -34.5q-48 -49 -100 -49q-38 0 -68 24q-53 40 -53 136z" />
<glyph unicode="&#x2019;" horiz-adv-x="599" d="M100 948q118 33 167 82.5t74 101.5q27 48 27 98q0 32 -16 63t-74 34q48 49 99 49q39 0 69 -23q53 -41 53 -136q0 -30 -8.5 -91t-79.5 -141q-83 -81 -169 -85h-10q-80 0 -132 48z" />
<glyph unicode="&#x201a;" horiz-adv-x="599" d="M100 -152q118 33 167 82.5t74 101.5q27 45 27 98q0 32 -16 63t-74 34q48 49 99 49q39 0 69.5 -23.5t42.5 -59.5q10 -31 10 -74q0 -30 -8.5 -92t-79.5 -142q-82 -81 -169 -85h-10q-80 0 -132 48z" />
<glyph unicode="&#x201c;" horiz-adv-x="899" d="M100 1060q0 29 8.5 90t79.5 141q85 84 178 85q81 0 133 -48q-118 -33 -167 -82.5t-74 -100.5q-27 -48 -27 -99q0 -31 16 -62.5t74 -34.5q-48 -49 -100 -49q-38 0 -68 24q-53 40 -53 136zM400 1057q0 31 8.5 92.5t79.5 141.5q84 84 178 85q81 0 133 -48 q-118 -33 -167 -82.5t-74 -100.5q-27 -45 -27 -99q0 -31 16 -62.5t74 -34.5q-48 -49 -100 -49q-38 0 -68.5 23.5t-42.5 59.5q-10 31 -10 74z" />
<glyph unicode="&#x201d;" horiz-adv-x="899" d="M100 948q118 33 167 82.5t74 101.5q27 45 27 98q0 32 -16 63t-74 34q48 49 99 49q39 0 69.5 -23.5t42.5 -59.5q10 -31 10 -74q0 -30 -8.5 -92t-79.5 -142q-82 -81 -169 -85h-10q-80 0 -132 48zM400 948q118 33 167 82.5t74 101.5q27 48 27 98q0 32 -16 63t-74 34 q48 49 99 49q39 0 69 -23q53 -41 53 -136q0 -30 -8.5 -91t-79.5 -141q-83 -81 -169 -85h-10q-80 0 -132 48z" />
<glyph unicode="&#x201e;" horiz-adv-x="1049" d="M150 -168q118 33 167 82.5t74 101.5q27 45 27 98q0 32 -16 63t-74 34q48 49 99 49q39 0 69.5 -23.5t42.5 -59.5q10 -31 10 -74q-2 -127 -88 -234q-82 -81 -169 -85h-10q-80 0 -132 48zM450 -168q118 33 167 82.5t74 101.5q27 48 27 98q0 32 -16 63t-74 34q48 49 99 49 q39 0 69 -23q53 -41 53 -136q-2 -124 -88 -232q-83 -81 -169 -85h-10q-80 0 -132 48z" />
<glyph unicode="&#x2022;" horiz-adv-x="1024" d="M216 718q0 123 87 209t210 86q122 0 208.5 -86.5t86.5 -208.5t-87.5 -209.5t-209.5 -87.5q-123 0 -209 87t-86 210z" />
<glyph unicode="&#x2026;" horiz-adv-x="2048" d="M129 136q0 15 16 31l82 84q15 14 29 14q13 0 31 -16l80 -86q12 -16 12 -29q0 -15 -14 -31l-80 -88q-20 -20 -29 -20q-16 0 -29 14l-88 101q-10 13 -10 26zM812 136q0 15 16 31l82 84q15 14 29 14q13 0 31 -16l80 -86q12 -16 12 -29q0 -15 -14 -31l-80 -88 q-20 -20 -29 -20q-16 0 -29 14l-88 101q-10 13 -10 26zM1495 136q0 15 16 31l82 84q15 14 29 14q13 0 31 -16l80 -86q12 -16 12 -29q0 -15 -14 -31l-80 -88q-20 -20 -29 -20q-16 0 -29 14l-88 101q-10 13 -10 26z" />
<glyph unicode="&#x202f;" horiz-adv-x="499" />
<glyph unicode="&#x2039;" horiz-adv-x="631" d="M141 487q37 23 339 271l-2 -61q-4 -59 -18 -72l-140 -136l159 -117q11 -10 21 -34q20 -45 24 -80q-42 16 -212 127q-146 90 -171 102z" />
<glyph unicode="&#x203a;" horiz-adv-x="631" d="M141 258q4 35 24 80q10 24 21 34l159 117l-140 136q-14 13 -17 72l-2 61q301 -248 338 -271q-25 -12 -171 -102q-170 -111 -212 -127z" />
<glyph unicode="&#x205f;" horiz-adv-x="624" />
<glyph unicode="&#x20ac;" horiz-adv-x="1814" d="M100 618q0 19 12 42l432 3q11 95 37 195q-101 -2 -186 -2q-57 0 -145.5 1.5t-110.5 12.5q-39 27 -39 65q0 13 12 42l507 4q20 57 45 115q65 148 183 276.5t260.5 208.5t282.5 82q130 0 228 -82q96 -87 96 -196q0 -105 -70.5 -200t-188.5 -148q-38 -15 -112 -15 q-62 0 -161 13q88 36 178.5 98t159.5 132q99 100 99 164q0 35 -33 57q-51 30 -129 30q-45 0 -145 -19t-255.5 -144.5t-261.5 -370.5l425 3l2 -14q2 -15 2 -35q-2 -78 -64 -78q-9 0 -20 2q-27 4 -106 4q-133 0 -282 -3q-32 -104 -45 -197l513 4l2 -14q2 -15 2 -35 q-2 -78 -65 -78q-9 0 -19 2q-36 5 -152 5q-251 -2 -292 -5v-7q0 -180 48 -287.5t103 -123.5q18 -5 38 -5q62 0 157.5 52.5t223 164t253.5 249.5q37 39 62 39q28 0 28 -34q0 -8 -5 -37.5t-69 -115.5q-376 -438 -625 -438q-39 0 -76 10q-146 46 -221.5 185t-75.5 341v5 q-92 -2 -169 -2q-52 0 -130.5 1.5t-98.5 12.5q-39 29 -39 65z" />
<glyph unicode="&#x2122;" horiz-adv-x="2842" d="M100 271q0 28 18 72q33 76 258 567q321 700 439 961l43 93q-255 25 -357 25q-73 0 -117 -11q-33 -9 -69.5 -28.5t-62.5 -56t-26 -95.5q0 -39 15 -70t35.5 -50.5t39.5 -24.5q-3 -32 -31 -51q-24 -16 -51 -16q-6 0 -26 2.5t-44 35.5q-33 52 -33 133q0 348 496 348 q165 -2 380 -23q279 -26 469 -26q182 0 290 40q11 -27 11 -49q0 -54 -54 -88q-60 -38 -259 -38q-153 0 -434 27l-38 3q-23 -49 -180 -402l-591 -1346q-27 -3 -35 -3q-86 0 -86 71zM682 1029q0 37 19 89q42 104 122 166q103 80 218 80q169 0 206 -163q3 -19 3 -42 q0 -154 -138 -612l880 1494h10q56 -2 98 -71l1 -3q0 -34 -155 -424q-66 -166 -129 -331q-127 -333 -127 -398q0 -11 3 -15q101 156 294 431q497 713 679 875q26 0 67 -51q9 -10 9 -29q0 -30 -30.5 -98.5t-112.5 -219.5l-91 -173q-262 -489 -444 -1107q-6 -23 -6 -45 q0 -80 79 -174q-36 -8 -60 -8q-4 0 -21 0.5t-47.5 14t-54.5 46.5q-34 47 -34 130q0 100 53.5 267.5t138 364t156.5 350.5q87 185 95 221q-42 -28 -362 -505l-325 -489q-3 -2 -6 -2q-19 0 -100 44q-33 22 -33 90q0 13 4.5 65t43.5 179q96 310 328 789l-882 -1509 q-32 -21 -56 -21t-41 21.5t-19 46.5q0 45 86 304q146 437 146 567q0 74 -82 74q-52 0 -115 -32t-102 -99q-49 -96 -69 -157l-19 -61q-78 39 -78 130z" />
<glyph unicode="&#x25fc;" horiz-adv-x="990" d="M0 0v990h990v-990h-990z" />
</font>
</defs>
</svg>
