<?xml version="1.0" encoding="utf-8"?>
<!-- Generator: Adobe Illustrator 22.1.0, SVG Export Plug-In . SVG Version: 6.00 Build 0)  -->
<svg version="1.1" id="Calque_1" xmlns="http://www.w3.org/2000/svg" xmlns:xlink="http://www.w3.org/1999/xlink" x="0px" y="0px"
	 viewBox="0 0 350 498" style="enable-background:new 0 0 350 498;" xml:space="preserve">
<style type="text/css">
	.st0{fill:#F78FB3;}
	.st1{fill:#F8A5C2;}
</style>
<g>
	<path class="st0" d="M316.5,58.3L316.5,58.3L316.5,58.3c0.9,0,1.7-0.1,2.5-0.1c6.9,0,13.3,1.6,18.8,4.4c0.5-0.2,1-0.5,1.5-0.7
		c4.3-1.5,6.4-6.2,4.9-10.4c-1.6-4.2-6.3-6.3-10.6-4.8c-4,1.4-7.5,3.4-10.7,5.8l-6.5,0.4L316.5,58.3
		C316.5,58.3,316.5,58.3,316.5,58.3C316.5,58.3,316.5,58.3,316.5,58.3z"/>
	<path class="st0" d="M349,82.8c-3.2-11.3-15.6-19.1-30-19.1c-0.8,0-1.7,0-2.5,0.1c-0.1,0-0.2,0-0.3,0c-8.2,0.5-16.2,3.6-23.3,8.8
		c-14.4-25.1-39.9-45-71.3-55.5l-1.5,2.8c-34.3-15.7-82.7-4.9-82.7-4.9l-0.9-2.6c-8.3,1.8-16.2,4.1-23.8,7.1l0.1-0.1
		C99,6.5,79.3,2.5,56,7.7l-6-4v5.4c12.6,12.2,17.5,24.3,19,37.4l0.1-0.1c-25.4,20-23.2,38.1-34.3,47.6c-6.3,5.4-21.1-0.6-28.3,5.3
		c-7.9,6.4-8.6,38.5-1.8,46.7c6.3,7.7,34.9,6.3,34.9,6.3c0,7.1-4.7,14.3-11.8,18.6l-4-3.4v5.4c0,0,6.2,14.9,39,14.9
		c0,0,13.3,15.4,30,23.5c0,0,0.8,25.4,8,32.4c7.2,7.1,34,7.4,40,0c3.5-4.2,4-14.3,4-14.3c8.3,1.3,16.9,2,25.7,2
		c15.3,0,30.1-2.1,43.8-6c0,0-0.4,13.7,4.2,18.2c7,6.9,33.8,7.5,40,0c8.4-10.2,7.8-44.9,7.8-44.9c24.4-20.1,39.5-47.9,39.5-78.6
		c0-11.3-2.1-22.1-5.8-32.4c1.8-1.6,3.5-2.9,5.2-3.9c-0.2,9.5,3.6,18.5,11,23.3c3.5,2.3,7.8,3.5,12,3.5h0c4.7,0,9.4-1.4,13.3-4.2
		C348.9,101.1,351.7,92.3,349,82.8z M331.8,93.2c-1,0.7-2.3,1.1-3.6,1.1c-1.1,0-2.1-0.3-2.9-0.8c-3-2-4.5-7.8-3-13.5
		c5.8,0.9,10.1,3.9,10.9,7C334.4,91.4,332.4,92.8,331.8,93.2z"/>
</g>
<g>
	<path class="st1" d="M337.8,57.2c0.5-0.2,1-0.5,1.5-0.7c4.3-1.5,6.4-6.2,4.9-10.4c-1.6-4.2-6.3-6.3-10.6-4.8
		c-6.9,2.5-12.7,6.6-17.2,11.6c0.9,0,1.7-0.1,2.5-0.1C325.9,52.9,332.3,54.5,337.8,57.2z"/>
	<path class="st1" d="M349,77.4c-3.2-11.3-15.6-19.1-30-19.1c-0.8,0-1.7,0-2.5,0.1c-0.1,0-0.2,0-0.3,0c-8.2,0.5-16.2,3.6-23.3,8.8
		c-14-24.4-38.6-43.9-68.9-54.7l-3.9,7.4c-34.3-15.7-82.7-4.9-82.7-4.9l-2.7-7.6c-7.6,1.7-15,3.9-22,6.7l0.1-0.1
		C97.8,0,75.9-3.6,50,3.7C62.6,15.9,67.5,28,69,41.1l0.1-0.1C43.6,61,45.9,79.1,34.7,88.6c-6.3,5.4-21.1-0.6-28.3,5.3
		c-7.9,6.4-8.6,38.5-1.8,46.7c6.3,7.7,34.9,6.3,34.9,6.3c0,8.3-6.5,16.9-15.8,20.6c0,0,6.2,14.9,39,14.9c0,0,13.3,15.4,30,23.5
		c0,0,0.8,25.4,8,32.4c7.2,7.1,34,7.4,40,0c3.5-4.2,4-14.3,4-14.3c8.3,1.3,16.9,2,25.7,2c15.3,0,30.1-2.1,43.8-6
		c0,0-0.4,13.7,4.2,18.2c7,6.9,33.8,7.5,40,0c8.4-10.2,7.8-44.9,7.8-44.9c24.4-20.1,39.5-47.9,39.5-78.6c0-11.3-2.1-22.1-5.8-32.4
		c1.8-1.6,3.5-2.9,5.2-3.9c-0.2,9.5,3.6,18.5,11,23.3c3.5,2.3,7.8,3.5,12,3.5h0c4.7,0,9.4-1.4,13.3-4.2
		C348.9,95.7,351.7,86.9,349,77.4z M331.8,87.9c-1,0.7-2.3,1.1-3.6,1.1c-1.1,0-2.1-0.3-2.9-0.8c-3-2-4.5-7.8-3-13.5
		c5.8,0.9,10.1,3.9,10.9,7C334.4,86,332.4,87.4,331.8,87.9z"/>
</g>
<g>
	<path class="st1" d="M337.8,311.6c0.5-0.2,1-0.5,1.5-0.7c4.3-1.5,6.4-6.2,4.9-10.4c-1.6-4.2-6.3-6.3-10.6-4.8
		c-6.9,2.5-12.7,6.6-17.2,11.6c0.9,0,1.7-0.1,2.5-0.1C325.9,307.3,332.3,308.9,337.8,311.6z"/>
	<path class="st1" d="M349,331.8c-3.2-11.3-15.6-19.1-30-19.1c-0.8,0-1.7,0-2.5,0.1c-0.1,0-0.2,0-0.3,0c-8.2,0.5-16.2,3.6-23.3,8.8
		c-14-24.4-38.6-43.9-68.9-54.7l-3.9,7.4c-34.3-15.7-82.7-4.9-82.7-4.9l-2.7-7.6c-7.6,1.7-15,3.9-22,6.7l0.1-0.1
		c-15-13.9-36.9-17.6-62.8-10.3c12.6,12.2,17.5,24.3,19,37.4l0.1-0.1c-25.4,20-23.2,38.1-34.3,47.6c-6.3,5.4-21.1-0.6-28.3,5.3
		c-7.9,6.4-8.6,38.5-1.8,46.7c6.3,7.7,34.9,6.3,34.9,6.3c0,8.3-6.5,16.9-15.8,20.6c0,0,6.2,14.9,39,14.9c0,0,13.3,15.4,30,23.5
		c0,0,0.8,25.4,8,32.4c7.2,7.1,34,7.4,40,0c3.5-4.2,4-14.3,4-14.3c8.3,1.3,16.9,2,25.7,2c15.3,0,30.1-2.1,43.8-6
		c0,0-0.4,13.7,4.2,18.2c7,6.9,33.8,7.5,40,0c8.4-10.2,7.8-44.9,7.8-44.9c24.4-20.1,39.5-47.9,39.5-78.6c0-11.3-2.1-22.1-5.8-32.4
		c1.8-1.6,3.5-2.9,5.2-3.9c-0.2,9.5,3.6,18.5,11,23.3c3.5,2.3,7.8,3.5,12,3.5h0c4.7,0,9.4-1.4,13.3-4.2
		C348.9,350.1,351.7,341.3,349,331.8z M331.8,342.2c-1,0.7-2.3,1.1-3.6,1.1c-1.1,0-2.1-0.3-2.9-0.8c-3-2-4.5-7.8-3-13.5
		c5.8,0.9,10.1,3.9,10.9,7C334.4,340.4,332.4,341.8,331.8,342.2z"/>
</g>
</svg>
